<?xml version="1.0" encoding="UTF-8" standalone="no"?>
<!-- Created with Inkscape (http://www.inkscape.org/) -->

<svg
   version="1.1"
   id="svg2"
   xml:space="preserve"
   width="2000"
   height="2000"
   viewBox="0 0 2000 2000"
   sodipodi:docname="acsa.svg"
   inkscape:version="1.1.2 (0a00cf5339, 2022-02-04)"
   xmlns:inkscape="http://www.inkscape.org/namespaces/inkscape"
   xmlns:sodipodi="http://sodipodi.sourceforge.net/DTD/sodipodi-0.dtd"
   xmlns="http://www.w3.org/2000/svg"
   xmlns:svg="http://www.w3.org/2000/svg"><defs
     id="defs6" /><sodipodi:namedview
     id="namedview4"
     pagecolor="#ffffff"
     bordercolor="#666666"
     borderopacity="1.0"
     inkscape:pageshadow="2"
     inkscape:pageopacity="0.0"
     inkscape:pagecheckerboard="0"
     showgrid="false"
     inkscape:zoom="0.422"
     inkscape:cx="1000"
     inkscape:cy="1001.1848"
     inkscape:window-width="1920"
     inkscape:window-height="1016"
     inkscape:window-x="0"
     inkscape:window-y="27"
     inkscape:window-maximized="1"
     inkscape:current-layer="g10" /><g
     id="g8"
     inkscape:groupmode="layer"
     inkscape:label="ink_ext_XXXXXX"
     transform="matrix(1.3333333,0,0,-1.3333333,0,2000)"><g
       id="g10"
       transform="scale(0.1)"><path
         d="m 11747.8,3629.8 c 22.3,15.7 34.1,34.7 35.4,57 -1.3,28.8 -12.1,50.5 -32.4,64.9 -20.4,14.4 -50.2,21 -89.5,19.7 -35.4,0 -66.9,-9.8 -94.4,-29.5 -27.6,-19.7 -49.9,-44 -66.9,-72.8 -14.5,-22.3 -30.8,-41 -49.2,-56.1 -18.4,-15 -42,-22.6 -70.8,-22.6 -36.7,0 -68.2,13.1 -94.4,39.4 -26.3,26.2 -39.3,57.7 -39.3,94.4 0,35.4 14,74.4 42.2,117 28.2,42.6 69.5,80 124,112.1 54.4,32.1 99.9,51.8 136.7,59 36.6,7.2 68.8,10.9 96.3,10.9 69.5,0 127.5,-7.3 174.1,-21.7 46.5,-14.4 88.5,-37 125.9,-67.8 37.4,-30.9 67.5,-67.3 90.5,-109.2 22.9,-42 34.4,-90.5 34.4,-145.6 0,-81.3 -36.1,-148.2 -108.2,-200.6 l -208.5,-151.4 h 200.6 c 35.4,0 66.2,-12.5 92.5,-37.4 26.2,-24.9 39.3,-56.4 39.3,-94.4 0,-36.7 -13.1,-68.2 -39.3,-94.4 -26.3,-26.3 -57.1,-39.4 -92.5,-39.4 H 11378 c -24.9,1.3 -47.5,8.5 -67.8,21.7 -20.4,13.1 -36.8,29.5 -49.2,49.1 -12.5,19.7 -18,46.6 -16.7,80.7 1.3,34.1 23.6,65.5 66.9,94.4 l 436.6,322.6"
         style="fill:#80cb28;fill-opacity:1;fill-rule:nonzero;stroke:none"
         id="path12" /><path
         d="m 4624.25,3384.3 h 520.38 l -258.61,668.6 z M 5699.7,3125.7 c 20.99,-54.7 19.96,-108.8 -3.16,-162.4 -23.16,-53.7 -62.04,-92.1 -116.69,-115.2 -54.69,-21 -108.8,-19.4 -162.42,4.8 -53.61,24.1 -90.97,64.6 -111.96,121.4 l -28.38,69.4 h -785.3 l -25.23,-69.4 c -21.04,-56.8 -58.34,-97.3 -111.96,-121.4 -53.61,-24.2 -107.77,-25.8 -162.42,-4.8 -54.7,23.1 -94.12,61.5 -118.27,115.2 -24.19,53.6 -25.77,107.7 -4.73,162.4 L 4687.33,4712 c 16.8,37.9 44.15,70.5 82,97.8 37.84,27.3 76.72,41 116.69,41 42.03,0 81.46,-12.6 118.26,-37.9 36.76,-25.2 63.57,-58.8 80.43,-100.9 L 5699.7,3125.7"
         style="fill:#359e3e;fill-opacity:1;fill-rule:nonzero;stroke:none"
         id="path14" /><path
         d="m 5718.6,3847.9 c 0,138.8 26.27,269.1 78.85,391.1 52.53,121.9 124.03,228.6 214.45,320.1 90.38,91.4 197.12,163.4 320.12,216 122.99,52.5 253.88,78.9 392.64,78.9 157.69,0 303.81,-34.2 438.38,-102.5 134.53,-68.4 248.07,-159.3 340.62,-272.8 25.23,-37.9 36.76,-73.7 34.69,-107.3 0,-56.8 -22.08,-106.2 -66.23,-148.2 -44.16,-42.1 -95.7,-64.2 -154.54,-66.2 -58.89,2 -100.92,17.8 -126.15,47.3 -54.7,69.4 -122.51,125 -203.42,167.1 -80.96,42.1 -168.73,63.1 -263.35,63.1 -79.92,0 -155.62,-15.3 -227.07,-45.7 -71.5,-30.5 -134.04,-72.6 -187.65,-126.2 -53.62,-53.6 -96.19,-115.6 -127.73,-186.1 -31.54,-70.4 -47.31,-144.5 -47.31,-222.3 0,-82 15.23,-159.3 45.73,-231.8 30.46,-72.5 72.54,-135.6 126.16,-189.2 53.61,-53.6 116.14,-95.7 187.65,-126.2 71.45,-30.5 148.23,-45.7 230.22,-45.7 94.62,0 182.39,21 263.35,63.1 80.91,42 148.72,97.7 203.42,167.1 31.54,29.4 74.61,44.2 129.3,44.2 60.96,0 112.46,-21.1 154.54,-63.1 42.03,-42.1 63.08,-88.3 63.08,-138.8 0,-48.4 -11.58,-87.3 -34.69,-116.7 -92.55,-113.5 -206.09,-204.5 -340.62,-272.8 -134.57,-68.3 -280.69,-102.5 -438.38,-102.5 -138.76,0 -269.65,26.3 -392.64,78.9 -123,52.5 -229.74,124.5 -320.12,216 -90.42,91.5 -161.92,198.2 -214.45,320.1 -52.58,121.9 -78.85,252.3 -78.85,391.1"
         style="fill:#359e3e;fill-opacity:1;fill-rule:nonzero;stroke:none"
         id="path16" /><path
         d="m 8531.79,3255 c 50.47,8.4 92.5,25.7 126.15,52 33.61,26.3 52.54,66.7 56.78,121.4 -2.12,50.5 -20.01,88.8 -53.63,115.1 -33.65,26.3 -74.64,44.7 -122.99,55.2 l -220.77,37.9 c -77.81,10.5 -152.47,29.9 -223.92,58.3 -71.5,28.4 -135.61,70.5 -192.37,126.2 -56.78,55.7 -102.02,121.4 -135.62,197.1 -33.66,75.7 -49.43,155.6 -47.31,239.7 0,82 15.77,159.2 47.31,231.8 31.53,72.5 75.15,134.5 130.88,186.1 55.68,51.5 121.42,93 197.11,124.5 52.54,21 108.27,35.8 167.16,44.2 48.34,8.4 98.8,12.6 151.37,12.6 60.96,0 115.61,-5.3 164.01,-15.8 86.18,-14.7 166.06,-43.1 239.68,-85.1 35.73,-12.6 94.61,-57.9 176.62,-135.6 10.49,-12.6 21.53,-28.4 33.11,-47.3 11.53,-19 20.5,-37.9 26.81,-56.8 12.62,-56.8 3.15,-110.4 -28.38,-160.8 -31.54,-50.5 -76.78,-82 -135.62,-94.7 -46.28,-10.5 -86.24,-6.8 -119.84,11.1 -33.66,17.8 -66.23,40.4 -97.77,67.8 -33.66,35.7 -67.32,62.5 -100.92,80.4 -33.66,17.8 -81.51,26.8 -143.5,26.8 -62.04,0 -113.04,-6.8 -152.96,-20.5 -39.97,-13.7 -72.54,-35.2 -97.77,-64.6 -25.22,-29.5 -37.84,-66.3 -37.84,-110.4 -2.12,-52.6 15.22,-96.2 52.03,-130.9 36.77,-34.7 84.62,-55.2 143.51,-61.5 l 201.83,-28.4 c 103,-14.7 198.69,-41 287,-78.8 88.3,-37.9 154.53,-81 198.69,-129.3 44.16,-48.4 75.15,-100.5 93.04,-156.2 17.83,-55.7 26.81,-126.6 26.81,-212.8 -2.12,-77.8 -18.93,-154.1 -50.46,-228.7 -31.54,-74.6 -75.21,-139.8 -130.89,-195.5 -55.73,-55.8 -120.93,-99.9 -195.54,-132.5 -74.65,-32.6 -152.96,-49.9 -234.96,-52 l -50.46,-3.2 c -23.15,-2.1 -46.27,-2.1 -69.38,0 -61.01,0 -115.66,5.3 -164,15.8 -86.24,14.7 -166.11,43.1 -239.68,85.1 -111.47,63.1 -199.78,151.4 -264.92,265 -8.43,14.7 -16.31,32.5 -23.66,53.6 -7.39,21 -11.03,41 -11.03,59.9 0,58.8 20.98,109.3 63.07,151.4 42.04,42 92.49,63.1 151.38,63.1 46.22,0 84.07,-12.2 113.54,-36.3 29.42,-24.2 55.68,-54.2 78.84,-89.9 25.24,-42.1 57.81,-75.7 97.78,-100.9 39.91,-25.2 73.02,-41.5 99.33,-48.9 26.27,-7.4 55.2,-11.6 86.74,-12.6 31.53,-1.1 76.72,1.6 135.61,7.9"
         style="fill:#359e3e;fill-opacity:1;fill-rule:nonzero;stroke:none"
         id="path18" /><path
         d="m 9856.36,3384.3 h 520.34 l -258.6,668.6 z m 1075.44,-258.6 c 21,-54.7 20,-108.8 -3.1,-162.4 -23.2,-53.7 -62.1,-92.1 -116.7,-115.2 -54.7,-21 -108.8,-19.4 -162.5,4.8 -53.6,24.1 -90.9,64.6 -111.9,121.4 l -28.4,69.4 h -785.3 l -25.24,-69.4 c -21.03,-56.8 -58.34,-97.3 -111.95,-121.4 -53.62,-24.2 -107.77,-25.8 -162.42,-4.8 -54.7,23.1 -94.12,61.5 -118.27,115.2 -24.2,53.6 -25.78,107.7 -4.73,162.4 L 9919.43,4712 c 16.81,37.9 44.15,70.5 81.97,97.8 37.9,27.3 76.8,41 116.7,41 42.1,0 81.5,-12.6 118.3,-37.9 36.8,-25.2 63.6,-58.8 80.4,-100.9 l 615,-1586.3"
         style="fill:#359e3e;fill-opacity:1;fill-rule:nonzero;stroke:none"
         id="path20" /><path
         d="M 10785.9,6758.67 C 9876.97,5958.83 9218.83,5287.15 7902.97,5411.71 c -903.64,8.81 -1813.09,306.67 -2700.63,-6.8 245.5,875 868.45,1859.46 1857.45,1949.62 400.48,32.95 799.96,47.27 1200.63,-0.74 363.34,-55.52 715.12,104.03 1075.49,79.96 303.41,-73.62 -99.92,-355.69 -222.9,-418.54 -267.17,-159.74 -562.41,-216.56 -868.06,-235.6 -82.65,-22.32 -340.96,14.29 -363.54,-69.23 -6.42,-47.5 37.56,-55.68 68.11,-69.64 728.57,-325.61 1568.65,-125.27 2199.98,318.17 319.6,192.98 590.2,520.7 972.3,572.83 187.8,25.61 284.4,-67.3 175.2,-211.55 0,0 -493.2,-545.25 -511.1,-561.52"
         style="fill:#359e3e;fill-opacity:1;fill-rule:nonzero;stroke:none"
         id="path22" /><path
         d="m 2477.89,1368.6 -59.19,215.4 -62.04,-215.4 z m -114.11,323.8 c 9.99,1.4 19.49,2.5 28.53,3.2 9.03,0.7 19.01,1 29.95,1 9.51,0 18.78,-0.3 27.81,-1 9.03,-0.7 19.01,-1.8 29.95,-3.2 l 160.46,-512.8 c -19.5,-2.8 -38.51,-4.3 -57.05,-4.3 -18.07,0 -35.66,1.5 -52.77,4.3 l -28.53,102.7 h -169.72 l -29.24,-102.7 c -17.12,-2.8 -33.52,-4.3 -49.21,-4.3 -17.59,0 -34.94,1.5 -52.06,4.3 l 161.88,512.8"
         style="fill:#359e3e;fill-opacity:1;fill-rule:nonzero;stroke:none"
         id="path24" /><path
         d="m 2809.49,1430.6 c 5.7,-0.9 11.05,-1.4 16.04,-1.4 4.99,0 11.06,0 18.19,0 11.88,0 23.53,1.5 34.94,4.6 11.41,3.1 21.51,8.2 30.31,15.4 8.79,7.1 15.8,16.5 21.04,28.1 5.22,11.7 7.84,26.1 7.84,43.2 0,17.6 -2.62,32.4 -7.84,44.6 -5.24,12.1 -12.25,21.8 -21.04,29.2 -8.8,7.4 -18.9,12.6 -30.31,15.7 -11.41,3.1 -23.06,4.6 -34.94,4.6 -5.24,0 -10.11,-0.1 -14.62,-0.3 -4.52,-0.3 -11.05,-0.9 -19.61,-1.8 z m -104.12,263.9 c 21.86,1.9 43.97,3.4 66.32,4.6 22.34,1.2 44.93,1.8 67.75,1.8 23.77,0 47.89,-2.4 72.38,-7.1 24.48,-4.8 46.59,-13.7 66.32,-26.8 19.73,-13 35.77,-31.2 48.14,-54.5 12.36,-23.3 18.54,-53.5 18.54,-90.6 0,-37.1 -6.18,-67.1 -18.54,-90.2 -12.37,-23.1 -28.29,-41.2 -47.78,-54.6 -19.5,-13.3 -41.25,-22.3 -65.25,-27 -24.01,-4.8 -47.67,-7.2 -70.96,-7.2 -6.18,0 -12.01,0.1 -17.47,0.4 -5.47,0.2 -10.59,0.6 -15.33,1 v -164.7 c -9.04,-1.4 -17.83,-2.4 -26.39,-2.8 -8.56,-0.5 -16.88,-0.8 -24.96,-0.8 -7.61,0 -15.93,0.3 -24.96,0.8 -9.03,0.4 -18.31,1.4 -27.81,2.8 v 514.9"
         style="fill:#359e3e;fill-opacity:1;fill-rule:nonzero;stroke:none"
         id="path26" /><path
         d="m 3232.37,1430.6 c 5.71,-0.9 11.06,-1.4 16.05,-1.4 4.99,0 11.05,0 18.18,0 11.88,0 23.54,1.5 34.95,4.6 11.41,3.1 21.5,8.2 30.31,15.4 8.79,7.1 15.8,16.5 21.04,28.1 5.22,11.7 7.84,26.1 7.84,43.2 0,17.6 -2.62,32.4 -7.84,44.6 -5.24,12.1 -12.25,21.8 -21.04,29.2 -8.81,7.4 -18.9,12.6 -30.31,15.7 -11.41,3.1 -23.07,4.6 -34.95,4.6 -5.23,0 -10.1,-0.1 -14.62,-0.3 -4.52,-0.3 -11.05,-0.9 -19.61,-1.8 z m -104.11,263.9 c 21.86,1.9 43.97,3.4 66.32,4.6 22.34,1.2 44.93,1.8 67.74,1.8 23.77,0 47.89,-2.4 72.39,-7.1 24.48,-4.8 46.59,-13.7 66.32,-26.8 19.72,-13 35.77,-31.2 48.14,-54.5 12.35,-23.3 18.54,-53.5 18.54,-90.6 0,-37.1 -6.19,-67.1 -18.54,-90.2 -12.37,-23.1 -28.3,-41.2 -47.78,-54.6 -19.51,-13.3 -41.25,-22.3 -65.26,-27 -24.01,-4.8 -47.66,-7.2 -70.95,-7.2 -6.19,0 -12.02,0.1 -17.47,0.4 -5.47,0.2 -10.59,0.6 -15.34,1 v -164.7 c -9.04,-1.4 -17.82,-2.4 -26.38,-2.8 -8.56,-0.5 -16.88,-0.8 -24.96,-0.8 -7.61,0 -15.94,0.3 -24.96,0.8 -9.04,0.4 -18.31,1.4 -27.81,2.8 v 514.9"
         style="fill:#359e3e;fill-opacity:1;fill-rule:nonzero;stroke:none"
         id="path28" /><path
         d="m 3556.13,1692.4 c 20.92,2.3 40.53,4.3 58.84,6 18.29,1.7 38.62,2.5 60.97,2.5 26.14,0 51.94,-2.4 77.38,-7.1 25.43,-4.8 48.36,-13.2 68.81,-25.3 20.44,-12.2 36.96,-28.6 49.56,-49.2 12.6,-20.7 18.91,-47 18.91,-78.8 0,-19.1 -2.39,-35.8 -7.14,-50.3 -4.75,-14.5 -10.82,-27.2 -18.18,-38.2 -7.38,-10.9 -15.33,-20.3 -23.89,-28.1 -8.56,-7.9 -16.65,-14.2 -24.25,-18.9 l -12.12,-7.9 124.8,-216.8 c -9.52,-0.9 -19.5,-1.9 -29.96,-2.8 -10.46,-1 -21.15,-1.5 -32.09,-1.5 -18.07,0 -35.9,1.5 -53.48,4.3 l -134.07,238.2 17.11,8.6 c 6.65,3.3 14.74,7.6 24.25,12.8 9.5,5.2 18.65,11.8 27.46,19.6 8.79,7.9 16.28,17.4 22.46,28.5 6.18,11.2 9.27,24.4 9.27,39.6 0,30 -8.56,52 -25.67,66 -17.12,14 -39.23,21 -66.33,21 -10.45,0 -19.96,-0.7 -28.52,-2.1 v -432.9 c -8.56,-0.9 -17.12,-1.8 -25.67,-2.5 -8.56,-0.7 -16.88,-1.1 -24.96,-1.1 -8.09,0 -16.65,0.3 -25.67,0.8 -9.04,0.4 -18.31,1.4 -27.82,2.8 v 512.8"
         style="fill:#359e3e;fill-opacity:1;fill-rule:nonzero;stroke:none"
         id="path30" /><path
         d="m 4195.82,1258.1 c 73.69,0 110.53,58.9 110.53,176.8 0,59 -8.91,103.2 -26.74,132.7 -17.83,29.4 -45.53,44.2 -83.08,44.2 -74.65,0 -111.96,-59 -111.96,-176.9 0,-117.9 37.08,-176.8 111.25,-176.8 z m 0,-87 c -38.51,0 -71.8,6.6 -99.84,19.9 -28.06,13.3 -51.11,31.8 -69.18,55.3 -18.07,23.5 -31.5,51.3 -40.29,83.4 -8.8,32.1 -13.19,67.2 -13.19,105.2 0,38 4.39,73.3 13.19,105.9 8.79,32.6 22.22,60.7 40.29,84.5 18.07,23.8 41.12,42.3 69.18,55.6 28.04,13.3 61.33,20 99.84,20 38.51,0 71.78,-6.7 99.84,-20 28.05,-13.3 51.1,-31.8 69.17,-55.6 18.07,-23.8 31.49,-51.9 40.29,-84.5 8.8,-32.6 13.2,-67.9 13.2,-105.9 0,-38 -4.4,-73.1 -13.2,-105.2 -8.8,-32.1 -22.22,-59.9 -40.29,-83.4 -18.07,-23.5 -41.12,-42 -69.17,-55.3 -28.06,-13.3 -61.33,-19.9 -99.84,-19.9"
         style="fill:#359e3e;fill-opacity:1;fill-rule:nonzero;stroke:none"
         id="path32" /><path
         d="m 4850.48,1276.6 c 6.17,-13.3 11.28,-27 15.33,-41 4.03,-14 7.01,-28.2 8.91,-42.4 -24.72,-9.1 -46.95,-15 -66.67,-17.9 -19.74,-2.8 -41.01,-4.2 -63.83,-4.2 -40.42,0 -75.84,6.5 -106.26,19.6 -30.43,13 -55.98,31.3 -76.66,54.9 -20.68,23.5 -36.26,51.4 -46.71,83.8 -10.46,32.3 -15.69,67.5 -15.69,105.5 0,38 5.46,73.3 16.4,105.9 10.94,32.6 26.75,60.7 47.42,84.5 20.69,23.8 46.11,42.3 76.31,55.6 30.19,13.3 64.54,20 103.05,20 22.82,0 43.86,-1.4 63.12,-4.3 19.25,-2.8 40.04,-8.8 62.39,-17.8 -0.95,-14.3 -3.81,-28.2 -8.56,-41.7 -4.75,-13.6 -9.98,-27.2 -15.69,-41 -16.64,5.7 -31.37,9.7 -44.21,12.1 -12.84,2.4 -28.06,3.6 -45.64,3.6 -45.64,0 -80.71,-14.9 -105.19,-44.6 -24.49,-29.7 -36.72,-73.8 -36.72,-132.3 0,-116 49.2,-174 147.61,-174 17.59,0 33.04,1.2 46.36,3.6 13.3,2.3 28.28,6.4 44.93,12.1"
         style="fill:#359e3e;fill-opacity:1;fill-rule:nonzero;stroke:none"
         id="path34" /><path
         d="m 4959.59,1692.4 c 17.58,2.8 34.94,4.2 52.06,4.2 17.11,0 34.7,-1.4 52.77,-4.2 v -201.1 h 171.86 v 201.1 c 17.59,2.8 34.95,4.2 52.06,4.2 17.12,0 34.7,-1.4 52.78,-4.2 v -512.8 c -18.08,-2.8 -35.43,-4.3 -52.06,-4.3 -17.6,0 -35.19,1.5 -52.78,4.3 v 221.8 h -171.86 v -221.8 c -18.07,-2.8 -35.43,-4.3 -52.06,-4.3 -17.59,0 -35.19,1.5 -52.77,4.3 v 512.8"
         style="fill:#359e3e;fill-opacity:1;fill-rule:nonzero;stroke:none"
         id="path36" /><path
         d="m 5448.08,1692.4 h 290.96 c 2.85,-14.3 4.28,-28.8 4.28,-43.5 0,-15.7 -1.43,-30.7 -4.28,-45 H 5552.2 v -111.2 h 148.33 c 2.85,-15.2 4.28,-30 4.28,-44.2 0,-15.3 -1.43,-30.2 -4.28,-45 H 5552.2 V 1268 h 191.83 c 2.85,-14.2 4.28,-28.7 4.28,-43.5 0,-15.7 -1.43,-30.6 -4.28,-44.9 h -295.95 v 512.8"
         style="fill:#359e3e;fill-opacity:1;fill-rule:nonzero;stroke:none"
         id="path38" /><path
         d="m 5927.3,1417.1 c -16.17,6.2 -30.66,12.9 -43.5,20.3 -12.84,7.4 -23.78,16.2 -32.8,26.4 -9.04,10.2 -16.05,22.5 -21.04,36.7 -4.99,14.3 -7.49,31.4 -7.49,51.4 0,24.2 4.16,45.6 12.48,64.2 8.31,18.5 20.08,34.1 35.3,46.7 15.21,12.6 33.52,22.1 54.91,28.5 21.4,6.4 45.4,9.6 72.03,9.6 24.25,0 46.94,-2.1 68.1,-6.4 21.15,-4.3 43.38,-10.5 66.68,-18.5 -2.85,-27.6 -10.46,-54.7 -22.82,-81.3 -7.13,2.8 -14.38,5.7 -21.75,8.5 -7.38,2.9 -15.22,5.2 -23.53,7.1 -8.33,1.9 -17.72,3.5 -28.17,4.7 -10.47,1.2 -22.36,1.8 -35.66,1.8 -8.09,0 -16.29,-0.7 -24.6,-2.2 -8.33,-1.4 -15.82,-4 -22.47,-7.8 -6.66,-3.8 -12.12,-9.4 -16.4,-16.8 -4.28,-7.4 -6.42,-17 -6.42,-28.9 0,-9.5 1.66,-17.4 5,-23.9 3.32,-6.4 7.84,-11.8 13.55,-16.3 5.7,-4.6 12.12,-8.4 19.25,-11.5 7.13,-3.1 14.26,-6 21.4,-8.9 l 42.78,-16.4 c 18.07,-7.1 34.47,-14.5 49.21,-22.1 14.73,-7.6 27.21,-17 37.44,-28.2 10.22,-11.1 18.18,-24.7 23.89,-40.6 5.7,-15.9 8.56,-35.6 8.56,-58.8 0,-24.3 -4.4,-46.4 -13.2,-66.4 -8.8,-19.9 -21.51,-37 -38.15,-51.3 -16.65,-14.3 -37.2,-25.4 -61.69,-33.5 -24.49,-8.1 -52.66,-12.1 -84.5,-12.1 -15.69,0 -29.72,0.4 -42.08,1.4 -12.37,0.9 -24.13,2.5 -35.3,4.6 -11.17,2.1 -22.23,4.9 -33.16,8.2 -10.94,3.3 -22.35,7.4 -34.23,12.1 1.43,13.8 4.03,28.2 7.84,43.2 3.81,15 8.32,30 13.55,45.3 19.97,-8.1 38.75,-14.2 56.34,-18.2 17.58,-4.1 36.37,-6.1 56.34,-6.1 29.95,0 53.48,5.6 70.6,16.8 17.12,11.1 25.67,28.2 25.67,51 0,11.4 -2.02,20.9 -6.06,28.5 -4.04,7.6 -9.27,14 -15.69,19.2 -6.42,5.3 -13.67,9.7 -21.75,13.2 -8.09,3.6 -16.4,7.1 -24.96,10.4 l -43.5,16.4"
         style="fill:#359e3e;fill-opacity:1;fill-rule:nonzero;stroke:none"
         id="path40" /><path
         d="m 6735.98,1276.6 c 6.17,-13.3 11.29,-27 15.33,-41 4.04,-14 7.01,-28.2 8.91,-42.4 -24.72,-9.1 -46.95,-15 -66.67,-17.9 -19.74,-2.8 -41.01,-4.2 -63.83,-4.2 -40.41,0 -75.83,6.5 -106.25,19.6 -30.44,13 -55.98,31.3 -76.67,54.9 -20.68,23.5 -36.26,51.4 -46.71,83.8 -10.46,32.3 -15.69,67.5 -15.69,105.5 0,38 5.46,73.3 16.41,105.9 10.93,32.6 26.74,60.7 47.42,84.5 20.68,23.8 46.11,42.3 76.31,55.6 30.18,13.3 64.53,20 103.04,20 22.83,0 43.86,-1.4 63.12,-4.3 19.25,-2.8 40.04,-8.8 62.4,-17.8 -0.96,-14.3 -3.82,-28.2 -8.56,-41.7 -4.76,-13.6 -9.98,-27.2 -15.69,-41 -16.65,5.7 -31.38,9.7 -44.22,12.1 -12.83,2.4 -28.05,3.6 -45.64,3.6 -45.64,0 -80.7,-14.9 -105.19,-44.6 -24.49,-29.7 -36.72,-73.8 -36.72,-132.3 0,-116 49.2,-174 147.62,-174 17.58,0 33.03,1.2 46.35,3.6 13.31,2.3 28.28,6.4 44.93,12.1"
         style="fill:#359e3e;fill-opacity:1;fill-rule:nonzero;stroke:none"
         id="path42" /><path
         d="m 7032.64,1258.1 c 73.69,0 110.54,58.9 110.54,176.8 0,59 -8.91,103.2 -26.74,132.7 -17.83,29.4 -45.53,44.2 -83.08,44.2 -74.65,0 -111.96,-59 -111.96,-176.9 0,-117.9 37.08,-176.8 111.24,-176.8 z m 0,-87 c -38.5,0 -71.79,6.6 -99.84,19.9 -28.05,13.3 -51.11,31.8 -69.17,55.3 -18.07,23.5 -31.5,51.3 -40.29,83.4 -8.8,32.1 -13.19,67.2 -13.19,105.2 0,38 4.39,73.3 13.19,105.9 8.79,32.6 22.22,60.7 40.29,84.5 18.06,23.8 41.12,42.3 69.17,55.6 28.05,13.3 61.34,20 99.84,20 38.51,0 71.78,-6.7 99.85,-20 28.04,-13.3 51.09,-31.8 69.17,-55.6 18.06,-23.8 31.49,-51.9 40.29,-84.5 8.79,-32.6 13.19,-67.9 13.19,-105.9 0,-38 -4.4,-73.1 -13.19,-105.2 -8.8,-32.1 -22.23,-59.9 -40.29,-83.4 -18.08,-23.5 -41.13,-42 -69.17,-55.3 -28.07,-13.3 -61.34,-19.9 -99.85,-19.9"
         style="fill:#359e3e;fill-opacity:1;fill-rule:nonzero;stroke:none"
         id="path44" /><path
         d="m 7362.83,1692.4 c 19.01,2.8 37.31,4.2 54.9,4.2 18.55,0 36.85,-1.4 54.92,-4.2 l 117.66,-293.9 121.24,293.9 c 14.73,2.8 31.14,4.2 49.2,4.2 18.07,0 35.42,-1.4 52.06,-4.2 l 24.25,-512.8 c -18.08,-2.8 -35.18,-4.3 -51.35,-4.3 -16.16,0 -32.09,1.5 -47.77,4.3 l -12.84,348 -104.11,-241 c -6.67,-1 -13.56,-1.8 -20.69,-2.5 -7.13,-0.7 -14.26,-1.1 -21.39,-1.1 -6.19,0 -12.38,0.3 -18.55,0.7 -6.18,0.5 -12.6,1.5 -19.25,2.9 l -96.99,246 -9.98,-353 c -15.22,-2.8 -29.95,-4.3 -44.21,-4.3 -15.23,0 -30.92,1.5 -47.07,4.3 l 19.97,512.8"
         style="fill:#359e3e;fill-opacity:1;fill-rule:nonzero;stroke:none"
         id="path46" /><path
         d="m 8042.43,1430.6 c 5.71,-0.9 11.06,-1.4 16.06,-1.4 4.99,0 11.04,0 18.18,0 11.87,0 23.54,1.5 34.94,4.6 11.41,3.1 21.51,8.2 30.31,15.4 8.79,7.1 15.8,16.5 21.04,28.1 5.22,11.7 7.84,26.1 7.84,43.2 0,17.6 -2.62,32.4 -7.84,44.6 -5.24,12.1 -12.25,21.8 -21.04,29.2 -8.8,7.4 -18.9,12.6 -30.31,15.7 -11.4,3.1 -23.07,4.6 -34.94,4.6 -5.24,0 -10.11,-0.1 -14.62,-0.3 -4.53,-0.3 -11.05,-0.9 -19.62,-1.8 z m -104.11,263.9 c 21.86,1.9 43.97,3.4 66.32,4.6 22.34,1.2 44.93,1.8 67.75,1.8 23.76,0 47.89,-2.4 72.39,-7.1 24.47,-4.8 46.58,-13.7 66.31,-26.8 19.73,-13 35.78,-31.2 48.14,-54.5 12.36,-23.3 18.54,-53.5 18.54,-90.6 0,-37.1 -6.18,-67.1 -18.54,-90.2 -12.36,-23.1 -28.29,-41.2 -47.77,-54.6 -19.51,-13.3 -41.26,-22.3 -65.26,-27 -24.01,-4.8 -47.67,-7.2 -70.96,-7.2 -6.19,0 -12.01,0.1 -17.47,0.4 -5.48,0.2 -10.58,0.6 -15.34,1 v -164.7 c -9.03,-1.4 -17.82,-2.4 -26.38,-2.8 -8.56,-0.5 -16.88,-0.8 -24.96,-0.8 -7.61,0 -15.93,0.3 -24.96,0.8 -9.04,0.4 -18.31,1.4 -27.81,2.8 v 514.9"
         style="fill:#359e3e;fill-opacity:1;fill-rule:nonzero;stroke:none"
         id="path48" /><path
         d="m 8361.21,1692.4 c 17.58,2.8 34.46,4.2 50.64,4.2 16.63,0 33.98,-1.4 52.05,-4.2 v -422.9 h 177.57 c 1.43,-8.1 2.38,-15.8 2.86,-23.2 0.46,-7.4 0.71,-14.4 0.71,-21 0,-7.7 -0.25,-15.1 -0.71,-22.5 -0.48,-7.4 -1.43,-15.1 -2.86,-23.2 h -280.26 v 512.8"
         style="fill:#359e3e;fill-opacity:1;fill-rule:nonzero;stroke:none"
         id="path50" /><path
         d="m 8853.98,1810.7 c 10.45,1.5 21.99,2.7 34.58,3.6 12.6,1 25.33,1.4 38.16,1.4 12.36,0 24.25,-0.4 35.65,-1.4 11.42,-0.9 21.16,-2.1 29.24,-3.6 l -104.82,-74.1 c -8.57,-1.9 -17.12,-3.1 -25.68,-3.6 -8.55,-0.5 -16.88,-0.7 -24.96,-0.7 -17.6,0 -34.94,1.4 -52.06,4.3 z m -134.07,-118.3 h 290.96 c 2.85,-14.3 4.28,-28.8 4.28,-43.5 0,-15.7 -1.43,-30.7 -4.28,-45 h -186.85 v -111.2 h 148.34 c 2.85,-15.2 4.28,-30 4.28,-44.2 0,-15.3 -1.43,-30.2 -4.28,-45 H 8824.02 V 1268 h 191.84 c 2.85,-14.2 4.28,-28.7 4.28,-43.5 0,-15.7 -1.43,-30.6 -4.28,-44.9 h -295.95 v 512.8"
         style="fill:#359e3e;fill-opacity:1;fill-rule:nonzero;stroke:none"
         id="path52" /><path
         d="m 9119.97,1692.4 c 19.01,2.8 37.32,4.2 54.91,4.2 18.55,0 36.84,-1.4 54.91,-4.2 l 117.67,-293.9 121.24,293.9 c 14.73,2.8 31.13,4.2 49.2,4.2 18.07,0 35.42,-1.4 52.06,-4.2 l 24.25,-512.8 c -18.08,-2.8 -35.19,-4.3 -51.35,-4.3 -16.16,0 -32.09,1.5 -47.77,4.3 l -12.84,348 -104.12,-241 c -6.67,-1 -13.55,-1.8 -20.68,-2.5 -7.13,-0.7 -14.27,-1.1 -21.4,-1.1 -6.18,0 -12.37,0.3 -18.54,0.7 -6.18,0.5 -12.6,1.5 -19.25,2.9 l -96.99,246 -9.98,-353 c -15.23,-2.8 -29.95,-4.3 -44.22,-4.3 -15.21,0 -30.91,1.5 -47.06,4.3 l 19.96,512.8"
         style="fill:#359e3e;fill-opacity:1;fill-rule:nonzero;stroke:none"
         id="path54" /><path
         d="m 9695.47,1692.4 h 290.96 c 2.85,-14.3 4.27,-28.8 4.27,-43.5 0,-15.7 -1.42,-30.7 -4.27,-45 h -186.85 v -111.2 h 148.34 c 2.85,-15.2 4.28,-30 4.28,-44.2 0,-15.3 -1.43,-30.2 -4.28,-45 H 9799.58 V 1268 h 191.84 c 2.85,-14.2 4.27,-28.7 4.27,-43.5 0,-15.7 -1.42,-30.6 -4.27,-44.9 h -295.95 v 512.8"
         style="fill:#359e3e;fill-opacity:1;fill-rule:nonzero;stroke:none"
         id="path56" /><path
         d="m 10081.3,1692.4 c 14.7,2.8 28.7,4.2 42,4.2 14.3,0 29,-1.4 44.3,-4.2 l 198.2,-326.7 v 326.7 c 17.1,2.8 33.5,4.2 49.2,4.2 14.7,0 29,-1.4 42.8,-4.2 v -512.8 c -15.2,-2.8 -29,-4.3 -41.4,-4.3 -13.3,0 -27.8,1.5 -43.5,4.3 l -199.6,325.9 v -325.9 c -15.3,-2.8 -30.7,-4.3 -46.4,-4.3 -15.7,0 -30.9,1.5 -45.6,4.3 v 512.8"
         style="fill:#359e3e;fill-opacity:1;fill-rule:nonzero;stroke:none"
         id="path58" /><path
         d="M 10664.6,1603.9 H 10537 c -2.9,14.3 -4.3,29.3 -4.3,45 0,14.7 1.4,29.2 4.3,43.5 h 360.1 c 2.9,-14.3 4.3,-28.8 4.3,-43.5 0,-15.7 -1.4,-30.7 -4.3,-45 h -127.6 v -424.3 c -8.6,-0.9 -17.2,-1.8 -25.7,-2.5 -8.6,-0.7 -16.9,-1.1 -25,-1.1 -8.1,0 -16.7,0.3 -26,0.8 -9.3,0.4 -18.7,1.4 -28.2,2.8 v 424.3"
         style="fill:#359e3e;fill-opacity:1;fill-rule:nonzero;stroke:none"
         id="path60" /><path
         d="m 11159.5,1368.6 -59.2,215.4 -62,-215.4 z m -114.1,323.8 c 10,1.4 19.5,2.5 28.6,3.2 9,0.7 19,1 29.9,1 9.5,0 18.8,-0.3 27.8,-1 9,-0.7 19,-1.8 30,-3.2 l 160.4,-512.8 c -19.5,-2.8 -38.5,-4.3 -57,-4.3 -18.1,0 -35.7,1.5 -52.8,4.3 l -28.5,102.7 h -169.7 l -29.3,-102.7 c -17.1,-2.8 -33.5,-4.3 -49.2,-4.3 -17.6,0 -34.9,1.5 -52.1,4.3 l 161.9,512.8"
         style="fill:#359e3e;fill-opacity:1;fill-rule:nonzero;stroke:none"
         id="path62" /><path
         d="m 11387,1692.4 c 17.6,2.8 35,4.2 52.1,4.2 17.1,0 34.7,-1.4 52.7,-4.2 v -512.8 c -18,-2.8 -35.4,-4.3 -52,-4.3 -17.6,0 -35.2,1.5 -52.8,4.3 v 512.8"
         style="fill:#359e3e;fill-opacity:1;fill-rule:nonzero;stroke:none"
         id="path64" /><path
         d="m 11603.8,1692.4 c 20.9,2.3 40.5,4.3 58.8,6 18.3,1.7 38.7,2.5 61,2.5 26.1,0 51.9,-2.4 77.4,-7.1 25.4,-4.8 48.4,-13.2 68.8,-25.3 20.4,-12.2 37,-28.6 49.6,-49.2 12.6,-20.7 18.9,-47 18.9,-78.8 0,-19.1 -2.4,-35.8 -7.2,-50.3 -4.7,-14.5 -10.8,-27.2 -18.2,-38.2 -7.3,-10.9 -15.3,-20.3 -23.8,-28.1 -8.6,-7.9 -16.7,-14.2 -24.3,-18.9 l -12.1,-7.9 124.8,-216.8 c -9.5,-0.9 -19.5,-1.9 -30,-2.8 -10.4,-1 -21.1,-1.5 -32.1,-1.5 -18,0 -35.9,1.5 -53.4,4.3 l -134.1,238.2 17.1,8.6 c 6.7,3.3 14.7,7.6 24.2,12.8 9.6,5.2 18.7,11.8 27.5,19.6 8.8,7.9 16.3,17.4 22.5,28.5 6.1,11.2 9.2,24.4 9.2,39.6 0,30 -8.5,52 -25.6,66 -17.2,14 -39.3,21 -66.4,21 -10.4,0 -19.9,-0.7 -28.5,-2.1 v -432.9 c -8.5,-0.9 -17.1,-1.8 -25.7,-2.5 -8.5,-0.7 -16.8,-1.1 -24.9,-1.1 -8.1,0 -16.7,0.3 -25.7,0.8 -9,0.4 -18.3,1.4 -27.8,2.8 v 512.8"
         style="fill:#359e3e;fill-opacity:1;fill-rule:nonzero;stroke:none"
         id="path66" /><path
         d="m 12041.7,1692.4 h 290.9 c 2.9,-14.3 4.3,-28.8 4.3,-43.5 0,-15.7 -1.4,-30.7 -4.3,-45 h -186.8 v -111.2 h 148.3 c 2.9,-15.2 4.3,-30 4.3,-44.2 0,-15.3 -1.4,-30.2 -4.3,-45 h -148.3 V 1268 h 191.8 c 2.9,-14.2 4.3,-28.7 4.3,-43.5 0,-15.7 -1.4,-30.6 -4.3,-44.9 h -295.9 v 512.8"
         style="fill:#359e3e;fill-opacity:1;fill-rule:nonzero;stroke:none"
         id="path68" /><path
         d="m 12520.9,1417.1 c -16.2,6.2 -30.7,12.9 -43.5,20.3 -12.9,7.4 -23.8,16.2 -32.8,26.4 -9.1,10.2 -16.1,22.5 -21.1,36.7 -5,14.3 -7.5,31.4 -7.5,51.4 0,24.2 4.2,45.6 12.5,64.2 8.3,18.5 20.1,34.1 35.3,46.7 15.2,12.6 33.5,22.1 54.9,28.5 21.4,6.4 45.4,9.6 72.1,9.6 24.2,0 46.9,-2.1 68.1,-6.4 21.1,-4.3 43.4,-10.5 66.6,-18.5 -2.8,-27.6 -10.4,-54.7 -22.8,-81.3 -7.1,2.8 -14.4,5.7 -21.7,8.5 -7.4,2.9 -15.2,5.2 -23.6,7.1 -8.3,1.9 -17.7,3.5 -28.1,4.7 -10.5,1.2 -22.4,1.8 -35.7,1.8 -8.1,0 -16.3,-0.7 -24.6,-2.2 -8.3,-1.4 -15.8,-4 -22.4,-7.8 -6.7,-3.8 -12.2,-9.4 -16.5,-16.8 -4.2,-7.4 -6.4,-17 -6.4,-28.9 0,-9.5 1.7,-17.4 5,-23.9 3.3,-6.4 7.9,-11.8 13.6,-16.3 5.7,-4.6 12.1,-8.4 19.2,-11.5 7.2,-3.1 14.3,-6 21.4,-8.9 l 42.8,-16.4 c 18.1,-7.1 34.5,-14.5 49.2,-22.1 14.7,-7.6 27.2,-17 37.5,-28.2 10.2,-11.1 18.1,-24.7 23.9,-40.6 5.7,-15.9 8.5,-35.6 8.5,-58.8 0,-24.3 -4.4,-46.4 -13.2,-66.4 -8.8,-19.9 -21.5,-37 -38.1,-51.3 -16.7,-14.3 -37.2,-25.4 -61.7,-33.5 -24.5,-8.1 -52.7,-12.1 -84.5,-12.1 -15.7,0 -29.8,0.4 -42.1,1.4 -12.4,0.9 -24.1,2.5 -35.3,4.6 -11.2,2.1 -22.2,4.9 -33.2,8.2 -10.9,3.3 -22.3,7.4 -34.2,12.1 1.4,13.8 4,28.2 7.8,43.2 3.8,15 8.4,30 13.6,45.3 20,-8.1 38.7,-14.2 56.3,-18.2 17.6,-4.1 36.4,-6.1 56.4,-6.1 29.9,0 53.5,5.6 70.6,16.8 17.1,11.1 25.6,28.2 25.6,51 0,11.4 -2,20.9 -6,28.5 -4.1,7.6 -9.3,14 -15.7,19.2 -6.4,5.3 -13.7,9.7 -21.8,13.2 -8,3.6 -16.4,7.1 -24.9,10.4 l -43.5,16.4"
         style="fill:#359e3e;fill-opacity:1;fill-rule:nonzero;stroke:none"
         id="path70" /><path
         d="m 4391.22,910.402 h 290.96 c 2.85,-14.3 4.28,-28.8 4.28,-43.504 0,-15.699 -1.43,-30.699 -4.28,-44.898 H 4495.34 V 710.699 h 148.33 c 2.85,-15.199 4.28,-29.898 4.28,-44.199 0,-15.199 -1.43,-30.199 -4.28,-44.898 h -148.33 v -135.5 h 191.83 c 2.85,-14.301 4.28,-28.801 4.28,-43.5 0,-15.704 -1.43,-30.704 -4.28,-45 h -295.95 v 512.8"
         style="fill:#359e3e;fill-opacity:1;fill-rule:nonzero;stroke:none"
         id="path72" /><path
         d="m 4777.02,910.402 c 14.73,2.797 28.76,4.297 42.08,4.297 14.26,0 28.99,-1.5 44.21,-4.297 l 198.25,-326.601 v 326.601 c 17.12,2.797 33.52,4.297 49.21,4.297 14.73,0 28.99,-1.5 42.78,-4.297 v -512.8 c -15.22,-2.801 -29,-4.204 -41.36,-4.204 -13.31,0 -27.81,1.403 -43.5,4.204 L 4869.01,723.5 V 397.602 c -15.22,-2.801 -30.66,-4.204 -46.35,-4.204 -15.69,0 -30.91,1.403 -45.64,4.204 v 512.8"
         style="fill:#359e3e;fill-opacity:1;fill-rule:nonzero;stroke:none"
         id="path74" /><path
         d="m 5517.96,635.102 c -16.17,6.199 -30.67,13 -43.5,20.3 -12.84,7.399 -23.78,16.2 -32.8,26.399 -9.04,10.199 -16.05,22.5 -21.04,36.699 -4.99,14.301 -7.49,31.402 -7.49,51.402 0,24.2 4.16,45.598 12.48,64.2 8.31,18.5 20.08,34.097 35.3,46.699 15.21,12.597 33.52,22.101 54.91,28.5 21.4,6.398 45.4,9.601 72.03,9.601 24.24,0 46.94,-2.101 68.1,-6.402 21.15,-4.301 43.38,-10.398 66.68,-18.5 -2.85,-27.598 -10.46,-54.699 -22.82,-81.301 -7.13,2.801 -14.39,5.699 -21.75,8.5 -7.38,2.903 -15.22,5.301 -23.53,7.199 -8.33,1.903 -17.72,3.403 -28.17,4.602 -10.47,1.199 -22.36,1.801 -35.66,1.801 -8.09,0 -16.29,-0.699 -24.6,-2.102 -8.33,-1.5 -15.82,-4.097 -22.47,-7.898 -6.66,-3.801 -12.12,-9.399 -16.4,-16.801 -4.28,-7.301 -6.42,-17 -6.42,-28.801 0,-9.597 1.66,-17.5 5,-23.898 3.32,-6.399 7.84,-11.903 13.55,-16.399 5.7,-4.601 12.12,-8.402 19.25,-11.402 7.13,-3.102 14.26,-6.098 21.39,-9 l 42.79,-16.398 c 18.06,-7.102 34.47,-14.5 49.21,-22.102 14.73,-7.598 27.21,-17 37.44,-28.102 10.22,-11.199 18.18,-24.796 23.89,-40.699 5.7,-15.898 8.55,-35.5 8.55,-58.797 0,-24.3 -4.39,-46.402 -13.19,-66.3 -8.8,-20 -21.51,-37.102 -38.15,-51.403 -16.65,-14.199 -37.21,-25.398 -61.69,-33.5 -24.49,-8.097 -52.66,-12.097 -84.5,-12.097 -15.69,0 -29.72,0.5 -42.08,1.398 -12.37,1 -24.14,2.5 -35.3,4.602 -11.17,2.199 -22.23,4.898 -33.16,8.199 -10.94,3.398 -22.35,7.398 -34.23,12.199 1.43,13.699 4.03,28.102 7.84,43.102 3.81,15 8.32,30.097 13.55,45.3 19.97,-8.101 38.75,-14.203 56.34,-18.203 17.58,-4 36.37,-6.097 56.34,-6.097 29.95,0 53.48,5.597 70.6,16.8 17.12,11.2 25.67,28.2 25.67,51 0,11.399 -2.02,20.899 -6.06,28.496 -4.05,7.602 -9.27,14.004 -15.69,19.301 -6.42,5.203 -13.67,9.602 -21.75,13.199 -8.09,3.5 -16.4,7.004 -24.96,10.301 l -43.5,16.403"
         style="fill:#359e3e;fill-opacity:1;fill-rule:nonzero;stroke:none"
         id="path76" /><path
         d="M 6057.08,586.602 5997.9,802 5935.85,586.602 Z m -114.1,323.8 c 9.99,1.399 19.49,2.5 28.53,3.2 9.03,0.699 19.01,1.097 29.95,1.097 9.51,0 18.77,-0.398 27.81,-1.097 9.03,-0.7 19.01,-1.801 29.95,-3.2 l 160.46,-512.8 c -19.5,-2.801 -38.51,-4.204 -57.05,-4.204 -18.07,0 -35.66,1.403 -52.77,4.204 l -28.53,102.699 h -169.72 l -29.24,-102.699 c -17.12,-2.801 -33.52,-4.204 -49.21,-4.204 -17.59,0 -34.94,1.403 -52.06,4.204 l 161.88,512.8"
         style="fill:#359e3e;fill-opacity:1;fill-rule:nonzero;stroke:none"
         id="path78" /><path
         d="m 6284.57,910.402 c 14.73,2.797 28.76,4.297 42.08,4.297 14.26,0 28.98,-1.5 44.21,-4.297 l 198.25,-326.601 v 326.601 c 17.12,2.797 33.52,4.297 49.21,4.297 14.73,0 28.99,-1.5 42.78,-4.297 v -512.8 c -15.22,-2.801 -29,-4.204 -41.36,-4.204 -13.31,0 -27.81,1.403 -43.5,4.204 L 6376.56,723.5 V 397.602 c -15.22,-2.801 -30.66,-4.204 -46.35,-4.204 -15.69,0 -30.91,1.403 -45.64,4.204 v 512.8"
         style="fill:#359e3e;fill-opacity:1;fill-rule:nonzero;stroke:none"
         id="path80" /><path
         d="m 6867.92,822 h -127.66 c -2.85,14.199 -4.28,29.199 -4.28,44.898 0,14.704 1.43,29.204 4.28,43.504 h 360.14 c 2.85,-14.3 4.28,-28.8 4.28,-43.504 0,-15.699 -1.43,-30.699 -4.28,-44.898 H 6972.74 V 397.602 c -8.55,-0.903 -17.11,-1.704 -25.67,-2.5 -8.55,-0.704 -16.88,-1 -24.96,-1 -8.09,0 -16.76,0.199 -26.03,0.699 -9.27,0.5 -18.66,1.398 -28.16,2.801 V 822"
         style="fill:#359e3e;fill-opacity:1;fill-rule:nonzero;stroke:none"
         id="path82" /><path
         d="m 7313.62,1028.8 c 10.45,1.4 21.99,2.6 34.59,3.5 12.59,1 25.31,1.5 38.15,1.5 12.36,0 24.25,-0.5 35.66,-1.5 11.41,-0.9 21.14,-2.1 29.23,-3.5 l -104.83,-74.198 c -8.55,-1.903 -17.11,-3.102 -25.67,-3.602 -8.56,-0.398 -16.88,-0.699 -24.96,-0.699 -17.59,0 -34.95,1.398 -52.06,4.301 z M 7179.55,910.402 h 290.96 c 2.85,-14.3 4.28,-28.8 4.28,-43.504 0,-15.699 -1.43,-30.699 -4.28,-44.898 H 7283.67 V 710.699 H 7432 c 2.85,-15.199 4.28,-29.898 4.28,-44.199 0,-15.199 -1.43,-30.199 -4.28,-44.898 h -148.33 v -135.5 h 191.83 c 2.85,-14.301 4.28,-28.801 4.28,-43.5 0,-15.704 -1.43,-30.704 -4.28,-45 h -295.95 v 512.8"
         style="fill:#359e3e;fill-opacity:1;fill-rule:nonzero;stroke:none"
         id="path84" /><path
         d="M 7962.56,586.602 7903.37,802 7841.33,586.602 Z m -114.1,323.8 c 9.98,1.399 19.49,2.5 28.52,3.2 9.03,0.699 19.02,1.097 29.95,1.097 9.51,0 18.78,-0.398 27.82,-1.097 9.02,-0.7 19.01,-1.801 29.95,-3.2 l 160.46,-512.8 c -19.51,-2.801 -38.51,-4.204 -57.05,-4.204 -18.08,0 -35.66,1.403 -52.78,4.204 l -28.52,102.699 h -169.73 l -29.24,-102.699 c -17.12,-2.801 -33.51,-4.204 -49.21,-4.204 -17.59,0 -34.94,1.403 -52.06,4.204 l 161.89,512.8"
         style="fill:#359e3e;fill-opacity:1;fill-rule:nonzero;stroke:none"
         id="path86" /><path
         d="m 8190.04,910.402 c 14.73,2.797 28.76,4.297 42.07,4.297 14.27,0 28.99,-1.5 44.22,-4.297 l 198.25,-326.601 v 326.601 c 17.12,2.797 33.52,4.297 49.21,4.297 14.73,0 28.99,-1.5 42.78,-4.297 v -512.8 c -15.21,-2.801 -29,-4.204 -41.36,-4.204 -13.32,0 -27.81,1.403 -43.5,4.204 L 8282.03,723.5 V 397.602 c -15.22,-2.801 -30.66,-4.204 -46.36,-4.204 -15.68,0 -30.9,1.403 -45.63,4.204 v 512.8"
         style="fill:#359e3e;fill-opacity:1;fill-rule:nonzero;stroke:none"
         id="path88" /><path
         d="m 8673.54,910.402 c 17.58,2.797 34.95,4.297 52.07,4.297 17.1,0 34.69,-1.5 52.77,-4.297 v -512.8 c -18.08,-2.801 -35.43,-4.204 -52.06,-4.204 -17.6,0 -35.2,1.403 -52.78,4.204 v 512.8"
         style="fill:#359e3e;fill-opacity:1;fill-rule:nonzero;stroke:none"
         id="path90" /><path
         d="m 8899.6,910.402 c 19.01,2.797 37.32,4.297 54.91,4.297 18.55,0 36.84,-1.5 54.91,-4.297 l 117.67,-293.8 121.24,293.8 c 14.73,2.797 31.13,4.297 49.2,4.297 18.07,0 35.42,-1.5 52.06,-4.297 l 24.25,-512.8 c -18.08,-2.801 -35.19,-4.204 -51.35,-4.204 -16.16,0 -32.09,1.403 -47.77,4.204 l -12.84,348 -104.12,-241 c -6.67,-0.903 -13.55,-1.801 -20.68,-2.5 -7.13,-0.7 -14.27,-1.102 -21.4,-1.102 -6.18,0 -12.37,0.301 -18.54,0.801 -6.18,0.398 -12.6,1.398 -19.25,2.801 l -96.99,246 -9.98,-353 c -15.23,-2.801 -29.95,-4.204 -44.22,-4.204 -15.22,0 -30.91,1.403 -47.06,4.204 l 19.96,512.8"
         style="fill:#359e3e;fill-opacity:1;fill-rule:nonzero;stroke:none"
         id="path92" /><path
         d="M 9708.29,586.602 9649.1,802 9587.06,586.602 Z m -114.1,323.8 c 9.98,1.399 19.49,2.5 28.52,3.2 9.03,0.699 19.02,1.097 29.96,1.097 9.5,0 18.78,-0.398 27.81,-1.097 9.02,-0.7 19.01,-1.801 29.95,-3.2 l 160.46,-512.8 c -19.5,-2.801 -38.51,-4.204 -57.05,-4.204 -18.08,0 -35.66,1.403 -52.78,4.204 l -28.52,102.699 h -169.73 l -29.24,-102.699 c -17.11,-2.801 -33.51,-4.204 -49.2,-4.204 -17.6,0 -34.95,1.403 -52.07,4.204 l 161.89,512.8"
         style="fill:#359e3e;fill-opacity:1;fill-rule:nonzero;stroke:none"
         id="path94" /><path
         d="m 9935.77,910.402 c 17.58,2.797 34.46,4.297 50.64,4.297 16.59,0 33.99,-1.5 52.09,-4.297 V 487.5 h 177.5 c 1.5,-8.102 2.4,-15.801 2.9,-23.199 0.5,-7.403 0.7,-14.399 0.7,-21 0,-7.602 -0.2,-15.102 -0.7,-22.5 -0.5,-7.403 -1.4,-15.102 -2.9,-23.199 h -280.23 v 512.8"
         style="fill:#359e3e;fill-opacity:1;fill-rule:nonzero;stroke:none"
         id="path96" /><path
         d="m 10294.5,910.402 h 290.9 c 2.9,-14.3 4.3,-28.8 4.3,-43.504 0,-15.699 -1.4,-30.699 -4.3,-44.898 h -186.8 V 710.699 h 148.3 c 2.9,-15.199 4.3,-29.898 4.3,-44.199 0,-15.199 -1.4,-30.199 -4.3,-44.898 h -148.3 v -135.5 h 191.8 c 2.9,-14.301 4.3,-28.801 4.3,-43.5 0,-15.704 -1.4,-30.704 -4.3,-45 h -295.9 v 512.8"
         style="fill:#359e3e;fill-opacity:1;fill-rule:nonzero;stroke:none"
         id="path98" /><path
         d="m 6479.21,8477.3 c -133.53,-64.62 -255.81,-152.38 -359.76,-258.2 -35.48,-36.12 -71.66,-76.07 -120.6,-89.02 -25.03,-6.62 -51.74,-5.57 -76.36,-13.58 -46.53,-15.13 -76.53,-58.71 -109.9,-94.5 -33.38,-35.78 -83.34,-67.45 -128.76,-49.25 -37.15,-89.58 -156.75,-133.56 -243.09,-89.4 -57.47,-94.18 -190.06,-104.49 -299.02,-87.13 -328.85,52.4 -627.71,267.5 -781.81,562.7 -9.54,18.28 -18.71,37.05 -27.83,55.95 54.99,-51.52 117.35,-94.97 185.93,-125.93 97.63,-43.1 198.63,-78.26 302.1,-103.15 189.04,-41.46 389.3,-47.06 576.41,5.37 3.45,1.05 5.83,4.4 5.51,8.14 -0.33,4.47 -4.5,7.7 -8.89,7.08 -56.78,-4.71 -114.8,-3.05 -171.6,1.35 -112.86,9.5 -224.34,32.52 -331.01,69.03 -105.69,34.78 -206.91,82.07 -297.28,146.93 -68.12,47.14 -138.45,89.41 -208.93,133.06 -17.44,10.45 -34.63,21.04 -51.75,31.65 138.99,-12.74 277.64,-16.29 416.62,1.58 72.61,8.81 178.87,24.52 250.2,28.26 35.39,2.46 87.72,5.8 122.79,5.81 l 61.57,1.64 c 0,0 61.53,-0.8 61.53,-0.79 246.74,-3.73 499.72,-34.26 729.69,-128.4 13.72,-6.62 23.16,11.54 12.36,19.85 -79.58,57.51 -167.8,98.84 -257.5,136.84 -68.77,27.36 -144.46,52.44 -215.87,72.58 -207.67,59.68 -429.06,77.2 -644.85,87.27 -124.24,9.75 -249.22,16.61 -373.17,0.14 48.28,21.51 96.28,44.22 144.45,68.98 19.27,10.6 58.41,31.72 77.82,42.03 224.12,121.92 518.53,112.69 763.48,54.93 10.01,-2.5 13.39,10.35 5.72,14.51 -55.14,27.21 -112.61,48 -171.53,65.79 -58.99,17.27 -119.46,30.93 -181.17,39.66 -125.34,17.82 -254.33,15.11 -378.68,-16.4 -22.22,-5.49 -49.13,-12.81 -71.02,-19.56 -36.51,-11.87 -74.02,-23.52 -109.76,-37.45 -105.3,-39.85 -201.38,-100.56 -288.33,-172.07 125.15,191.76 267.02,380.26 474.27,471.42 148.83,65.46 317.31,73.05 478.97,55.64 190.79,-20.55 360.21,-117.17 516.89,-227.96 273.95,-193.69 440.29,-493.4 722.16,-675.4 z m 647.52,6320 c -2502.86,5.1 -4548.11,-2020.2 -4552.4,-4535.2 -1.32,-777.96 166.73,-1501.43 482.06,-2131.89 99.57,93.68 207.67,189.89 312.93,273.1 -8.82,217.28 -139.37,426.25 -207.19,640.4 -84.1,265.52 -71.62,550.66 -58.31,828.87 13.21,275.82 28.63,560.72 150.55,808.52 138.81,-239.4 278.64,-481 364.35,-744.06 85.7,-263.11 114.23,-552.89 27.97,-815.8 -41.12,-125.32 -107.08,-241.47 -146.81,-367.24 -27.45,-86.9 -40.97,-182.59 -24.71,-270.97 30.7,21.85 60.78,42.03 89.95,60.15 10.6,7.74 21.11,15.53 31.6,23.33 89.56,77.44 253.19,309.58 488.04,996.56 24.91,72.88 48.65,145.14 70.94,215.1 -13.76,15.66 -22.52,37.67 -22.31,64.9 0.85,108.95 12.14,212.73 30.7,310.53 -42.68,33.6 -64.83,69.5 -55.33,98.2 7.95,24 36.7,38.9 77.68,44 -29.87,28.5 -44.11,57.5 -36.16,81.6 7.61,23 34.29,37.6 72.52,43.3 -27.32,27.3 -40.02,54.9 -32.41,78 8.06,24.3 37.51,39.3 79.41,44.2 -30.73,28.8 -45.47,58.4 -37.41,82.8 9.98,30.2 52.74,45.9 111.37,45.9 62.23,121.6 128.24,221.1 182.85,294.6 51.25,68.9 146.66,43 152.17,-42.1 7.8,-120.7 -5.54,-241.7 -32.31,-358.9 38.01,-31.9 57.21,-65.3 48.25,-92.4 -8.06,-24.4 -37.51,-39.3 -79.41,-44.2 30.73,-28.9 45.47,-58.4 37.41,-82.8 -7.61,-23 -34.28,-37.7 -72.52,-43.3 27.32,-27.4 40.03,-55 32.41,-78 -7.95,-24.1 -36.7,-38.9 -77.68,-44 29.87,-28.5 44.11,-57.6 36.16,-81.6 -10.71,-32.4 -59.11,-48.1 -124.36,-45.7 -54.01,-100.1 -109.8,-188.23 -158.36,-259.07 -4.31,-6.29 -8.98,-11.76 -13.88,-16.61 -25.53,-80.88 -53.06,-165.28 -82.19,-250.5 -101.69,-297.51 -198.77,-535.93 -290.68,-714.46 498.06,434.62 827.72,887.86 963.32,1090.56 -4.6,18.61 -4.84,39.75 0.82,62.67 33.32,134.91 78.05,260.31 130.07,376.21 -43.02,54.3 -59.88,105.4 -39.59,138.2 16.99,27.5 57.06,37.4 109.41,31.6 -28.61,44.2 -37.68,84.5 -20.69,111.9 16.26,26.3 53.68,36.6 102.8,32.3 -25.8,42 -33.38,80 -17.11,106.3 17.22,27.9 58.18,37.7 111.61,31.3 -29.57,45 -39.12,86 -21.89,113.9 21.32,34.5 79.03,41.3 151.79,24 113.21,132.4 224.6,236.4 314.11,311.3 83.99,70.4 194.72,10 176.35,-97.2 -26.06,-152 -78.46,-298.3 -146.39,-435.8 37.72,-50.8 51.64,-98 32.5,-128.9 -17.22,-27.9 -58.18,-37.7 -111.61,-31.3 29.57,-45 39.11,-86 21.89,-113.9 -16.27,-26.3 -53.69,-36.5 -102.8,-32.2 25.8,-42 33.38,-80.1 17.11,-106.4 -16.98,-27.5 -57.06,-37.4 -109.4,-31.5 28.61,-44.3 37.67,-84.5 20.69,-112 -22.87,-37 -87.58,-42.2 -167.83,-19.9 -96.66,-108.2 -191.99,-201.03 -273.22,-274.53 -30.12,-27.26 -63.75,-36.82 -93.85,-33.02 -173.94,-257.48 -616.72,-853.63 -1285.47,-1350.78 -12.56,-10.47 -25.01,-19.7 -37.3,-27.3 -35.74,-22.1 -73.18,-47.77 -111.63,-76.03 0.34,-0.58 0.61,-1.18 0.95,-1.76 l -13.6,-7.57 c -128.61,-95.87 -267.6,-219.61 -391.86,-337.67 86.54,-161.69 183.03,-316.89 289.08,-464.94 -0.35,25.83 0.78,51.74 3.68,77.67 16.06,143.65 82.49,277.97 168.65,394.03 80.19,108.01 177.33,201.98 275.16,294.46 -26.21,-72.02 -43.63,-147.19 -51.95,-222.36 -7.97,-75.76 -8.89,-151.72 -8.24,-226.58 1.57,-296.57 53.84,-599.2 192.31,-863.58 1.82,-3.3 5.81,-4.89 9.47,-3.57 4.19,1.46 6.26,6.24 4.58,10.32 -23.68,67.88 -39.93,139.1 -53.35,209.76 -38.95,210.9 -45.87,427.72 -24.81,640.78 12.53,122.42 54.25,289.63 79.15,411.66 6.19,26.68 12.71,53.36 19.65,79.96 19.06,-72.16 54.6,-140.34 89.55,-204.74 42.29,-72.45 97.04,-136.63 133.14,-212.77 116.46,-218.31 92.93,-503.57 45.58,-740.1 -0.94,-3.71 0.95,-7.66 4.61,-9.16 3.99,-1.64 8.55,0.27 10.19,4.26 22.31,54.45 40.2,110.17 55.46,167.02 15.25,56.82 27.36,114.72 35.63,173.64 16.96,119.53 18.53,244.91 -12.36,363.26 -16.18,58.86 -37.39,115.9 -58.26,173.33 -18.67,50.47 -38.19,101.79 -65.34,148.33 7.04,-3.33 14.06,-6.69 20.99,-10.17 204.82,-102.9 360.49,-298.98 414.26,-521.79 53.78,-222.82 4.68,-468.31 -130.66,-653.3 -93.06,-127.22 -222.79,-225.32 -322.71,-345.93 210.54,-163.02 439.01,-308.16 684.48,-433.16 0,0 396.89,710.12 735.41,1007.79 338.53,297.67 547.84,398.42 851.4,463.2 92.91,19.83 186.53,21.78 280.94,8.63 204.28,-28.47 409.16,-28.25 614.18,-8.22 218.09,21.31 432.75,61.63 644.45,117.82 173.42,46.03 348.37,51.79 525.24,23.91 99.9,-15.75 197.65,-40.32 295.17,-66.25 97.53,-25.93 195.28,-50.89 295.22,-65.88 93.77,-14.07 187.59,-16.65 281.14,2.13 90.05,18.08 167.02,59.78 230.17,126.98 34.76,36.98 64.26,77.77 90.83,120.75 22.11,35.75 42.46,72.6 64.92,108.13 13.43,21.24 28.55,41.58 44.5,61.03 15.09,18.38 33.96,33.12 57.06,40.2 73.53,22.53 130.13,69.92 179.83,125.6 91.9,103.07 151.2,221.36 162.8,361.35 5.3,65.35 14.6,130.36 21.1,195.63 7.8,78.89 9.3,157.72 -4.1,236.38 -22.2,131.12 -89.1,230.01 -207.4,293.4 -99.28,53.24 -198.31,106.96 -293.08,168.21 -168.09,108.66 -317.45,237.64 -439.11,397.62 -54.07,71.12 -116.93,134.52 -180.2,197.32 -84.71,84.2 -170.2,167.6 -253.47,253.2 -72.84,74.9 -138.37,156 -195.78,243.5 -69.71,106.3 -124.92,219.5 -155.47,343 -40.55,164 -113.82,312.3 -205.77,452.4 -110.21,168 -239.18,320.9 -377.15,466.3 -107.67,113.5 -217.54,224.8 -326.22,337.3 -15.06,15.6 -28.93,32.4 -45.55,51 10.49,9.5 17.98,18 26.99,24.2 63.7,44.3 123.69,92.9 178.36,148.1 107.4,108.3 185.95,233 225.96,381.8 39.74,147.8 59.04,296.7 38.72,449.3 -7.58,56.9 -19.75,112.8 -42.26,165.7 -9.1,21.4 -21.74,41.6 -34.96,60.8 -9.01,13.2 -25.35,11.7 -33.29,-2.3 -9.07,-16 -17.03,-32.8 -23.32,-50.1 -20.71,-56.9 -39.74,-114.4 -60.71,-171.1 -45.63,-123.6 -102.08,-241.7 -180.73,-348.1 -87.8,-118.9 -196.94,-211.1 -334.38,-268 -7.77,-3.2 -15.57,-6.3 -23.44,-9.3 -68.8,-26 -68.85,-26.1 -137.42,5.1 -112.25,51.2 -229.56,75 -353.13,67.4 -73.19,-4.6 -141.9,-26.6 -209.83,-51.6 -37.84,-14 -74.83,-30.2 -112.21,-45.4 -10.58,-4.3 -21.2,-8.5 -42.62,-17 16.12,33 33.51,48.6 51.97,63.1 23.78,18.7 47.79,37.2 71.84,55.6 88.28,67.4 158.39,150.4 210.23,248.4 74.22,140.4 120.12,288.7 118.35,449 -1.32,119.2 -24.1,234 -75.19,342.3 -9.3,19.8 -19.64,39.1 -31.02,57.7 -7.83,12.8 -17.37,24.9 -27.75,35.8 -19.22,20.2 -35.83,17.8 -46.81,-6.7 -6.16,-13.7 -10.57,-28.3 -14.52,-42.8 -7.5,-27.6 -14.13,-55.5 -21.09,-83.2 -54.45,-217 -168.65,-397.7 -332.26,-548.7 -83.17,-76.7 -173.98,-143.1 -271,-201.1 -47.64,-28.4 -96.14,-55.5 -143.39,-84.6 -83.35,-51.3 -161.06,-110 -228.68,-181.3 -73.03,-77 -128.23,-164.2 -152.99,-268.6 -20.99,-88.5 -15.97,-177 1.08,-265.4 6.37,-33 13.73,-65.9 19.35,-99 1.81,-10.7 -0.51,-22.1 -0.86,-31 -12.52,-7.6 -20.24,-3.1 -26.33,2.3 -25.16,22.3 -50.45,44.5 -74.43,68 -66.13,64.8 -133.82,127.8 -206.98,184.7 -90.73,70.5 -187.88,130.1 -295.01,172.8 -206.49,82.3 -413.22,81.6 -620.08,2.2 -31.34,-12 -61.81,-26.5 -92.03,-41.3 -39.68,-19.3 -74.64,-45.4 -104.61,-77.9 -44.08,-47.8 -59.04,-104.4 -49.47,-168 5.57,-37 19.41,-71.2 37.48,-103.9 29.53,-53.3 66.7,-100.8 108.42,-145.1 77.66,-82.3 164.59,-154 256.66,-219.3 65.83,-46.6 134.3,-89.5 201.59,-134.1 13.68,-9 27.33,-18.2 43.44,-28.9 -10.65,-14.5 -23.75,-16.8 -35.75,-21.1 -159.8,-58 -322.47,-106.3 -487.3,-147.8 -160.25,-40.3 -323.42,-63 -487.17,-81.9 -150.34,-17.3 -300.79,-34.4 -451.56,-47.2 -117.25,-10 -235.07,-13.3 -352.65,-19.3 -11.34,-0.6 -22.8,1.2 -35.02,1.9 -6.25,21.3 1.89,38.9 6.91,55.7 30.8,103.1 59.73,206.9 94.97,308.5 195.61,563.9 496.93,1065 900.89,1504.3 370.9,403.3 803.13,724.4 1295.9,964 343.85,167.2 703.92,286 1079.7,355.4 340.39,62.8 683.65,86.9 1029.75,66.2 298.15,-17.9 591.55,-63.5 880.09,-141.4 472.18,-127.4 909.33,-330.1 1312.45,-606.6 346.42,-237.6 651.55,-520.1 915.75,-846.5 239.4,-295.8 436.6,-617.5 590.8,-965.6 110,-248.3 196,-504.6 256.8,-769.2 51.3,-223.4 85,-449.3 100.1,-678.1 11,-166.4 12.6,-332.8 5,-499.3 -10.7,-235.63 -41.6,-468.85 -91.5,-699.53 -94.3,-435.79 -253,-846.8 -475.2,-1233.12 -66.1,-114.74 -119.8,-201.33 -195.7,-308.89 l 12,-8.31 409.5,227.82 c 370.5,656.08 582.3,1413.19 584.2,2219.03 6,2526.2 -2040.62,4549 -4533.67,4554"
         style="fill:#80cb28;fill-opacity:1;fill-rule:nonzero;stroke:none"
         id="path100" /><path
         d="m 3349.21,9251.56 c -7.23,-85.68 -13.63,-170.02 -13.52,-258.8 0.61,-54.61 3.72,-110.21 18.02,-163.34 4.14,-17.95 11.24,-35.68 18.36,-52.49 2.7,-7.23 13.9,-5.95 15.34,1.36 8.01,35.35 16.15,68.13 26.4,100.88 97.3,298.74 123.74,407.68 98.17,725.81 -18.09,280.69 -82.49,559.52 -194.36,817.62 -1.54,3.5 -5.36,5.4 -9.11,4.4 -4.25,-1.1 -6.74,-5.6 -5.51,-9.8 33.35,-133.2 55.25,-270 69.56,-406.4 15.41,-152.34 21.23,-305.55 12.23,-458.26 -7.68,-100.48 -26.73,-200.72 -35.58,-300.98"
         style="fill:#80cb28;fill-opacity:1;fill-rule:nonzero;stroke:none"
         id="path102" /></g></g></svg>
