<?xml version="1.0" encoding="UTF-8" standalone="no"?>
<svg
   version="1.1"
   x="0px"
   y="0px"
   viewBox="0 0 164.55371 164.2166"
   enable-background="new 0 0 100 100"
   xml:space="preserve"
   id="svg4"
   sodipodi:docname="logo.svg"
   width="164.55371"
   height="164.2166"
   inkscape:version="1.1.2 (0a00cf5339, 2022-02-04)"
   xmlns:inkscape="http://www.inkscape.org/namespaces/inkscape"
   xmlns:sodipodi="http://sodipodi.sourceforge.net/DTD/sodipodi-0.dtd"
   xmlns="http://www.w3.org/2000/svg"
   xmlns:svg="http://www.w3.org/2000/svg"><defs
     id="defs8" /><sodipodi:namedview
     id="namedview6"
     pagecolor="#ffffff"
     bordercolor="#666666"
     borderopacity="1.0"
     inkscape:pageshadow="2"
     inkscape:pageopacity="0.0"
     inkscape:pagecheckerboard="0"
     showgrid="false"
     inkscape:snap-global="false"
     fit-margin-top="10"
     fit-margin-left="10"
     lock-margins="true"
     fit-margin-right="10"
     fit-margin-bottom="10"
     inkscape:zoom="2.559734"
     inkscape:cx="42.58255"
     inkscape:cy="71.296472"
     inkscape:window-width="1920"
     inkscape:window-height="1016"
     inkscape:window-x="0"
     inkscape:window-y="27"
     inkscape:window-maximized="1"
     inkscape:current-layer="svg4" /><path
     fill-rule="evenodd"
     clip-rule="evenodd"
     d="m 147.51989,88.701855 c -3.012,6.301 -12.309,7.497003 -17.916,3.11 -2.386,-1.866 -4.724,-3.792 -7.455,-5.991 3.32,7.362 9.86,10.930003 17.484,9.678003 -2.908,1.985 -5.777,2.222 -8.607,0.968 -2.342,-1.039003 -3.342,-0.034 -3.944,1.945 -0.73,2.406002 -1.268,4.873002 -2.038,7.266002 -1.436,4.459 -2.916,6.343 -7.285,9.246 1.457,-3.658 2.684,-6.743 3.888,-9.771 -2.064,0.29 -4.044,0.381 -5.905,0.9 -1.107,0.31 -2.431,1.069 -2.957,2.015 -2.399,4.322 -5.244,5.015 -8.684,1.267 -4.210001,-4.585 -6.104001,-10.128002 -4.186001,-16.351005 2.061001,-6.679 0.160001,-9.511 -6.883,-9.763 -3.642,-0.131 -3.875,-0.394 -3.592,-4.608 -2.945,0 -5.879,0 -8.813,0 0.007,-0.172 0.013,-0.346 0.02,-0.52 4.47,-1.5 9.065,-2.712 13.376,-4.581 4.537,-1.966 8.087001,-5.233 9.813001,-10.529 0.601,1.855 1.11,3.429 1.619,5.001 0.083,-0.025 0.165,-0.053 0.248,-0.08 -0.153,-2.564 -0.308,-5.127 -0.472,-7.916 -2.122,-0.298 -4.39,-0.54 -6.629001,-0.947 -3.362,-0.609 -8.333,-5.887 -8.435,-9.144 -0.021,-0.653 1.144,-1.918 1.76,-1.918 2.591,0.005 5.216,0.208 7.763,0.679 2.144001,0.397 4.174001,1.379 6.308001,1.871 0.728,0.168 1.616,-0.36 2.431,-0.57 -0.444,-0.611 -0.775,-1.375 -1.352,-1.811 -6.812,-5.13 -6.968,-11.238 -0.064,-17.176 0.325,1.986 0.544,3.79 0.922,5.557 1.105,5.143 3.719,6.277 8.119,3.575 4.298,-2.639 8.774,-3.165 13.512,-1.261 4.984,2.001 7.505,1.418 10.944,-2.712 1.334,-1.603 2.271,-3.529 3.502,-5.222 0.481,-0.662 1.283,-1.09 1.938,-1.625 0.442,0.75 1.108,1.45 1.291,2.259 1.214,5.359 -2.192,8.316 -5.804,11.305 -2.07,1.713 -3.745,3.901 -5.597,5.876 0.305,0.366 0.61,0.732 0.915,1.098 2.071,-1.091 4.328,-1.939 6.17,-3.332 2.671,-2.02 5.587,-2.308 8.662,-1.995 3.262,0.332 4.552,2.359 3.719,5.516 -1.237,4.68 -5.773,8.269 -10.639,8.4 -1.052,0.028 -2.103,0.004 -3.563,0.004 0.128,1.955 0.248,3.729 0.386,5.819 -2.494,1.244 -3.583,3.451 -2.323,8.024 0.989,3.592 1.599,7.683 5.935,9.416 0.62,0.248 1.087,2.084 0.856,2.988 -0.403,1.562 -1.124,3.236 -2.213,4.391 -3.104,3.286 -5.151,3.044 -9.453,0.224 -1.511,-0.088 -3.865,0.36 -4.337,-0.385 -0.736,-1.163 -0.194,-3.134 -0.194,-4.746 -0.11,0.061 -0.728,0.399 -1.47,0.807 1.586,-3.746 3.212,-4.413 12.467,-5.144 -0.655,-0.834 -1.138,-1.602 -1.763,-2.224 -2.482,-2.467 -3.342,-5.279 -2.129,-8.662 0.966,-2.691 0.847,-5.256 -0.719,-7.8 -2.965,-4.822 -1.296,-10.021 -0.739,-15.036 0.145,-1.309 1.781,-2.519 2.874,-3.636 1.696,-1.734 3.711,-3.194 5.214,-5.07 1.098,-1.369 1.591,-3.222 2.001,-5.072 -4.31,5.493 -8.485,10.891 -14.902,11.076 -2.85,2.197 -4.846,3.733 -7.255,5.591 -0.689,-1.708 -0.972,-2.703 -1.47,-3.577 -1.22,-2.146 -3.136,-2.848 -5.398,-1.969 -5.979,2.321 -9.091,0.567 -10.438,-6.042 -0.104,-0.508 -0.099,-1.037 -0.154,-1.65 -3.239,3.482 -1.77,8.195 3.875,12.831 0.082,-0.309 0.163,-0.616 0.244,-0.923 1.407,0.192 3.099,-0.045 4.163,0.663 2.794,1.861 5.522,3.93 7.848,6.33 1.097,1.132 1.341,3.184 1.739,4.873 0.811,3.446 1.013,7.104 2.284,10.355 2.132,5.457 1.488,10.994 1.591,16.554 0.022,1.181 0.563,2.682 1.4,3.461 5.114,4.764 12.09,4.554 17.266,-0.323 0.211,-0.204 0.478,-0.341 1.23,-0.857 z"
     id="path2"
     style="fill:#46b132;fill-opacity:1" /><path
     fill-rule="evenodd"
     clip-rule="evenodd"
     d="m 66.761265,94.388678 c -1.363944,1.11761 -2.394011,4.71997 -2.74546,7.240182 -0.590755,-0.10831 -1.184705,-0.18627 -1.78217,-0.2326 -0.389789,-2.140962 -1.317616,-4.121222 -2.197199,-5.158642 -9.147916,3.2196 -8.330316,-6.25037 -11.223385,-12.32598 6.159954,3.0295 16.883961,-0.27732 13.210034,11.0892 -2.591781,-4.47236 -5.395391,-6.46444 -11.449272,-9.4147 5.917135,3.3113 10.553395,8.04341 12.450584,13.6912 0.59427,-2.47772 1.388546,-4.02569 2.298161,-5.67112 -1.931375,-9.72685 3.013521,-11.09462 13.886734,-10.6093 -4.132409,4.96949 0.0262,12.86497 -12.448027,11.39176 z M 35.443587,126.72044 c 2.249597,-1.63776 3.379348,-1.86237 5.69636,-0.92655 3.132374,1.2649 5.40849,0.91377 9.530036,4.06788 3.503634,2.68156 5.519358,2.44385 8.756848,0.9291 3.043554,-1.42433 5.374623,-1.73042 8.511791,-2.68189 2.921185,-0.88597 4.627633,-2.78316 6.808218,-4.40909 3.618334,-2.6969 5.071099,-4.27619 8.698059,-5.33597 5.861222,-1.71188 -0.557846,-5.17206 -8.144047,-1.5419 -1.918915,0.62686 -3.999177,0.87543 -5.784222,1.71827 -5.154807,2.43331 -8.650134,1.01441 -12.75219,-0.36966 -1.674178,-0.56552 -2.874538,-1.69335 0.374454,-1.2189 3.542293,0.51727 6.626103,0.76425 10.471601,-1.25819 2.145441,-1.55468 3.055376,-3.23461 3.031094,-4.34264 -0.02652,-1.21985 -1.186622,-1.74638 -3.079019,-0.64986 -0.06422,0.0374 -0.129077,0.076 -0.194894,0.11694 -2.629802,1.63616 -7.677258,0.97319 -9.409585,0.31279 -5.147461,-1.96365 -7.375012,-1.07576 -10.67129,-2.26749 -4.207492,-1.52082 -7.259033,-0.71824 -8.900622,1.69431 -0.442827,0.58883 -2.360144,2.4758 -4.654471,3.19436 -0.899392,0.28147 0.372217,13.9436 1.711879,12.96849 z m 12.174535,-19.88215 c 3.58862,1.48951 6.81461,0.64635 8.803495,1.71028 2.744183,1.46778 5.941416,1.65054 6.968607,1.6106 2.845464,-0.11182 6.365712,-3.57137 8.399327,-0.45688 1.394936,2.13745 0.168376,5.03116 -3.383821,7.29545 5.992216,-1.25116 7.419421,-3.01735 11.519561,-3.34324 -10.24955,-11.50614 -18.214676,-15.271762 -32.307169,-6.81621 z"
     id="path2-3"
     style="fill:#46b132;fill-opacity:1;stroke-width:0.999999" /><path
     style="fill:none;stroke:#46b132;stroke-width:4.09701;stroke-opacity:1"
     id="path855"
     sodipodi:type="arc"
     sodipodi:cx="82.110817"
     sodipodi:cy="82.106293"
     sodipodi:rx="70.059944"
     sodipodi:ry="70.059944"
     sodipodi:start="0.52571927"
     sodipodi:end="5.2402618"
     sodipodi:open="true"
     sodipodi:arc-type="arc"
     d="M 142.71009,117.26484 A 70.059944,70.059944 0 0 1 72.781504,151.5423 70.059944,70.059944 0 0 1 14.380478,100.02268 70.059944,70.059944 0 0 1 39.668959,26.365065 70.059944,70.059944 0 0 1 117.39979,21.582875" /></svg>
