<?xml version="1.0" encoding="UTF-8" standalone="no"?>
<!-- Created with Inkscape (http://www.inkscape.org/) -->

<svg
   width="252.35959mm"
   height="132.74222mm"
   viewBox="0 0 252.35959 132.74222"
   version="1.1"
   id="svg1968"
   inkscape:version="1.1.2 (0a00cf5339, 2022-02-04)"
   sodipodi:docname="frgeda.svg"
   inkscape:export-filename="/srv/acsa/img/frgeda.png"
   inkscape:export-xdpi="270.5"
   inkscape:export-ydpi="270.5"
   xmlns:inkscape="http://www.inkscape.org/namespaces/inkscape"
   xmlns:sodipodi="http://sodipodi.sourceforge.net/DTD/sodipodi-0.dtd"
   xmlns="http://www.w3.org/2000/svg"
   xmlns:svg="http://www.w3.org/2000/svg">
  <sodipodi:namedview
     id="namedview1970"
     pagecolor="#ffffff"
     bordercolor="#666666"
     borderopacity="1.0"
     inkscape:pageshadow="2"
     inkscape:pageopacity="1"
     inkscape:pagecheckerboard="true"
     inkscape:document-units="mm"
     showgrid="false"
     fit-margin-top="5"
     lock-margins="true"
     fit-margin-left="5"
     fit-margin-right="5"
     fit-margin-bottom="5"
     inkscape:zoom="0.92715412"
     inkscape:cx="557.62035"
     inkscape:cy="358.6243"
     inkscape:window-width="1920"
     inkscape:window-height="1016"
     inkscape:window-x="0"
     inkscape:window-y="27"
     inkscape:window-maximized="1"
     inkscape:current-layer="g23940" />
  <defs
     id="defs1965" />
  <g
     inkscape:label="Calque 1"
     inkscape:groupmode="layer"
     id="layer1"
     transform="translate(8.3765306,12.611173)">
    <g
       id="g23940">
      <path
         style="fill:#039be3;stroke:none;stroke-width:1"
         d="m 47.149573,83.666197 c 1.414198,0.60934 2.805377,1.43114 3.958432,2.46089 9.40382,8.4 -2.61964,21.059773 -4.223015,30.082853 h 14.022917 c 1.373716,0 4.227248,0.54187 5.387446,-0.27199 1.896533,-1.33059 2.985558,-6.33571 3.81926,-8.45926 3.543829,-9.026253 6.973358,-21.674123 0.40296,-30.162493 -2.383366,-3.07895 -5.753629,-4.96067 -9.345083,-6.28967 -1.042194,-0.3855 -2.825485,-1.22873 -3.944937,-0.91308 -1.232694,0.3474 -2.178844,2.26986 -2.900628,3.234 -2.195247,2.93185 -6.256072,6.77466 -7.177352,10.31875"
         id="path23814" />
      <path
         style="fill:#039be3;stroke:none;stroke-width:1"
         d="m 4.5516171,70.966197 -8.202084,14.81667 c 3.40121896,1.89362 6.535315,4.04363 10.31875,5.17578 13.5519589,4.05553 27.1470439,-1.53935 36.4675209,-11.79063 3.008313,-3.30861 5.768711,-6.78259 8.134615,-10.583072 1.772708,-2.84744 2.842154,-6.08277 5.933281,-7.79753 2.226469,-1.23508 5.472642,-0.66913 7.9375,-0.66913 h 17.4625 c 1.89521,0 6.469856,0.84296 8.030369,-0.27199 1.256241,-0.89721 1.834885,-3.88753 2.394214,-5.28426 1.808163,-4.51697 4.166129,-9.062774 5.450417,-13.758344 h -38.629167 -11.1125 c -1.3589,0 -3.443552,-0.38973 -4.706143,0.15955 -2.07645,0.90355 -3.700728,6.35608 -4.78208,8.307124 C 33.95,58.829235 28.978479,76.657387 15.13495,74.858487 11.239172,74.352077 8.0941231,72.448397 4.5516171,70.966197"
         id="path23794" />
      <path
         style="fill:#039be3;stroke:none;stroke-width:1"
         d="m 73.07874,-6.0275495 c 0.770996,1.20205 2.34024,1.92931 3.439583,2.84549 1.864254,1.5536 3.519752,3.31385004 4.84214,5.35659 5.337175,8.2441505 5.149321,19.0664005 -0.735277,26.9875005 -2.040996,2.74717 -5.813954,4.44288 -7.546446,7.14375 6.227498,0.12859 11.819731,-0.21775 16.933333,-4.35531 11.112497,-8.99107 10.725147,-27.2838805 -1.852083,-34.9449205 -4.916752,-2.9949 -9.56654,-3.07874 -15.08125,-3.0331"
         id="path23790" />
      <path
         style="fill:#039be3;stroke:none;stroke-width:1"
         d="m 60.37874,-6.2921395 c 0.811477,1.24254 2.537619,1.90365 3.704167,2.82284 2.060839,1.62372 3.951816,3.68025004 5.340614,5.90841 7.746736,12.4290905 2.467769,26.2424305 -9.044781,33.8666705 1.742017,0.73104 4.300802,0.0222 6.085417,-0.37703 6.591035,-1.47506 12.274285,-6.30741 14.762691,-12.58756 C 87.079696,8.5699805 75.874857,-6.2904395 60.37874,-6.2921395"
         id="path23788" />
      <path
         style="fill:#039be3;stroke:none;stroke-width:1"
         d="m 47.67874,-6.1796395 c -7.387696,1.00563 -14.20151,4.79402 -17.491604,11.79375 -6.707981,14.2708305 4.32091,32.8673405 20.931187,30.8808505 8.875448,-1.06151 16.648642,-6.91039 18.923529,-15.7996 C 73.4944,7.2042005 62.346975,-8.1763195 47.67874,-6.1796395"
         id="path2038-6" />
    </g>
    <text
       xml:space="preserve"
       style="font-style:normal;font-variant:normal;font-weight:normal;font-stretch:normal;font-size:80px;line-height:1.25;font-family:Roboto;-inkscape-font-specification:Roboto;font-variant-ligatures:normal;font-variant-position:normal;font-variant-caps:normal;font-variant-numeric:normal;font-variant-alternates:normal;font-variant-east-asian:normal;font-feature-settings:normal;font-variation-settings:normal;text-indent:0;text-align:start;text-decoration-line:none;text-decoration-style:solid;text-decoration-color:#000000;letter-spacing:0px;word-spacing:0px;text-transform:none;writing-mode:lr-tb;direction:ltr;text-orientation:mixed;dominant-baseline:auto;baseline-shift:baseline;text-anchor:start;white-space:normal;shape-padding:0;shape-margin:0;inline-size:0;opacity:1;vector-effect:none;fill:#039be3;fill-opacity:1;stroke-width:0.999999;stroke-linecap:butt;stroke-linejoin:miter;stroke-miterlimit:4;stroke-dasharray:none;stroke-dashoffset:0;stroke-opacity:1;-inkscape-stroke:none;stop-color:#000000;stop-opacity:1"
       x="393.33383"
       y="345.96838"
       id="text5404"
       transform="matrix(0.26458333,0,0,0.26458333,-0.8466039,2.3415905)"><tspan
         sodipodi:role="line"
         id="tspan5402"
         x="393.33383"
         y="345.96838"
         style="font-style:normal;font-variant:normal;font-weight:900;font-stretch:normal;font-size:80px;font-family:Roboto;-inkscape-font-specification:'Roboto Heavy';fill:#039be3;fill-opacity:1">France-Comté</tspan></text>
    <g
       id="g24013">
      <path
         style="fill:#039be3;stroke:none;stroke-width:1"
         d="m 157.48083,65.409945 c -0.064,7.641442 -7.93486,4.064532 -12.43543,3.968752 0,1.19989 -0.50191,3.85684 0.27199,4.83183 0.7247,0.91281 3.15781,0.84243 4.22594,0.94403 4.11877,0.39238 9.90467,0.43762 12.71905,-3.15383 1.92511,-2.45666 1.83303,-5.757342 1.83303,-8.707442 V 47.418281 c -1.74519,0 -5.51206,-0.73475 -6.61458,0.793754 -1.90342,-0.73422 -4.00527,-1.490934 -6.08542,-1.245404 -12.43146,1.467654 -10.6569,22.967696 2.38125,20.219734 1.41102,-0.29739 2.5654,-0.9107 3.70417,-1.77642"
         id="path23798" />
      <g
         id="g23933">
        <path
           style="fill:#039be3;stroke:none;stroke-width:1"
           d="m 220.45166,52.709945 c 3.13584,-0.1606 5.73723,-1.9042 8.99583,-1.08399 0.75856,0.19076 3.72349,1.54807 2.26934,2.66409 -0.71226,0.54663 -2.20663,0.2704 -3.06309,0.38417 -3.21971,0.4281 -7.35674,0.73078 -9.20009,3.85683 -2.4429,4.14258 0.44635,9.05987 4.96676,9.70995 3.0517,0.43868 5.49751,-0.97288 7.9375,-2.56646 v 2.11666 h 6.35 v -11.90625 c 0,-2.33468 0.1053,-4.77308 -1.63724,-6.5868 -2.90142,-3.019694 -8.35528,-2.514334 -12.12109,-2.164294 -1.07315,0.0998 -3.50811,0.0278 -4.22593,0.969434 -0.7403,0.97076 -0.27199,3.43086 -0.27199,4.60666"
           id="path23802" />
        <path
           style="fill:#039be3;stroke:none;stroke-width:1"
           d="m 189.49541,66.732865 v -5.29167 c -1.69095,0.2212 -3.12685,1.3134 -4.7625,1.79679 -3.88144,1.14723 -8.83735,0.14499 -9.525,-4.44262 h 14.81667 c 0,-2.20265 0.0593,-4.51485 -0.71729,-6.61458 -2.19472,-5.935664 -10.74605,-6.624904 -15.68688,-3.87641 -4.9739,2.76675 -6.54023,10.14836 -3.6793,14.98891 0.94298,1.59544 2.26881,2.77998 3.94388,3.57373 1.92326,0.91148 4.23149,1.35016 6.35,1.44303 3.24856,0.14208 6.17697,-0.7358 9.26042,-1.57718"
           id="path23800" />
        <path
           style="fill:#ffffff;stroke:none;stroke-width:1"
           d="m 232.35791,58.266195 c 0,1.12713 0.25665,2.6289 -0.15954,3.69279 -1.90897,4.87786 -10.73044,-0.46249 -5.13107,-2.90036 0.57679,-0.25135 1.23111,-0.36698 1.85103,-0.45138 1.13188,-0.15451 2.29923,-0.2921 3.43958,-0.34105"
           id="path23812" />
        <path
           style="fill:#ffffff;stroke:none;stroke-width:1"
           d="m 154.04124,51.732315 c 0.8599,-0.11695 2.56487,-0.11536 3.1676,0.64373 0.58049,0.73131 0.27199,2.36934 0.27199,3.24432 0,2.80855 0.91731,6.2148 -2.64584,6.79291 -6.60135,1.07077 -6.7892,-9.86631 -0.79375,-10.68096"
           id="path23808" />
        <path
           style="fill:#ffffff;stroke:none;stroke-width:1"
           d="m 183.14541,55.091195 h -7.67292 c -1.28111,-5.25727 9.07336,-5.60705 7.67292,0"
           id="path23806" />
        <path
           style="fill:#039be3;stroke:none;stroke-width:1"
           d="m 126.25998,47.418281 v 20.372914 l 6.19046,-0.27199 0.42413,-3.43217 v -10.05417 l 7.9375,-0.26458 v -6.350004 c -3.12103,2.6e-4 -5.59515,0.773904 -7.9375,2.910414 -5.3e-4,-4.028814 -3.39858,-2.910414 -6.61459,-2.910414"
           id="path23804" />
        <path
           style="fill:#039be3;stroke:none;stroke-width:1"
           d="m 102.71207,41.068281 v 26.722914 h 6.87916 v -11.37708 h 11.37709 v -5.29167 h -11.37709 l 0.42413,-4.602954 3.28004,-0.42413 h 8.46667 v -5.02708 h -19.05"
           id="path23796" />
        <path
           style="fill:#039be3;stroke:none;stroke-width:1"
           d="m 207.48708,39.745361 v 8.466674 c -1.85791,-0.72073 -3.78116,-1.472414 -5.82084,-1.246194 -7.20381,0.799574 -9.55913,7.892524 -8.34469,14.210774 0.99113,5.15779 5.62028,8.361362 10.72594,6.58786 1.29779,-0.45085 2.40242,-1.20809 3.43959,-2.08994 0.0307,2.58736 1.87378,2.11772 3.96875,2.11666 0.87074,-2.6e-4 2.24525,0.23337 2.56169,-0.8329 0.71702,-2.41486 0.0841,-5.90762 0.0841,-8.42751 V 39.745361 h -6.61458"
           id="path23792" />
        <path
           style="fill:#ffffff;stroke:none;stroke-width:1"
           d="m 204.04749,51.732315 c 0.86016,-0.11695 2.56487,-0.11536 3.1676,0.64373 0.61356,0.77311 0.27199,2.58022 0.27199,3.5089 0,3.02234 1.03955,6.89928 -2.91042,7.35939 -6.5315,0.76068 -6.4098,-10.71298 -0.52917,-11.51202"
           id="path23810" />
      </g>
    </g>
  </g>
</svg>
