<?xml version="1.0" encoding="UTF-8" standalone="no"?>
<!-- Created with Inkscape (http://www.inkscape.org/) -->

<svg
   width="133.26352mm"
   height="125.74829mm"
   viewBox="0 0 133.26352 125.74829"
   version="1.1"
   id="svg5"
   inkscape:version="1.1.2 (0a00cf5339, 2022-02-04)"
   sodipodi:docname="pansebetes.svg"
   xmlns:inkscape="http://www.inkscape.org/namespaces/inkscape"
   xmlns:sodipodi="http://sodipodi.sourceforge.net/DTD/sodipodi-0.dtd"
   xmlns="http://www.w3.org/2000/svg"
   xmlns:svg="http://www.w3.org/2000/svg">
  <sodipodi:namedview
     id="namedview7"
     pagecolor="#ffffff"
     bordercolor="#666666"
     borderopacity="1.0"
     inkscape:pageshadow="2"
     inkscape:pageopacity="0.0"
     inkscape:pagecheckerboard="0"
     inkscape:document-units="mm"
     showgrid="false"
     fit-margin-top="1"
     fit-margin-left="1"
     fit-margin-right="1"
     fit-margin-bottom="1"
     lock-margins="true"
     inkscape:zoom="0.68174315"
     inkscape:cx="-101.94455"
     inkscape:cy="329.3029"
     inkscape:window-width="1920"
     inkscape:window-height="1016"
     inkscape:window-x="0"
     inkscape:window-y="27"
     inkscape:window-maximized="1"
     inkscape:current-layer="g3931" />
  <defs
     id="defs2" />
  <g
     inkscape:label="Calque 1"
     inkscape:groupmode="layer"
     id="layer1"
     transform="translate(-44.229103,25.32125)">
    <g
       id="g3931"
       transform="matrix(1.7408377,0,0,1.7408377,55.168053,-104.42454)"
       style="stroke-width:0.574436">
      <g
         id="g835">
        <path
           style="fill:#155e6a;stroke:none;stroke-width:0.574435"
           d="m 49.627223,46.529729 c -2.143349,0.477162 -4.383179,2.362263 -3.990653,4.773416 -0.09692,1.937965 1.296796,3.242685 2.650483,4.363976 0.812297,1.787726 -1.310594,3.33126 -1.647447,5.084483 -0.594782,1.350658 -1.683548,3.693987 -2.007783,4.404795 -1.138825,1.053855 -1.632801,3.406387 -3.594472,3.079265 -2.075287,0.465906 -3.978983,-0.454015 -5.980246,-0.7427 -1.974698,-0.11916 -3.951466,0.131184 -5.919278,0.176605 -2.134769,0.79433 -4.597146,1.057477 -6.21474,2.920326 -1.758212,1.878462 -2.936767,4.552535 -2.742559,7.132647 0.450116,1.104154 2.260622,0.568531 3.573831,0.655074 0.921526,-0.346502 1.162652,-0.369215 2.249208,-0.383192 1.288915,-0.531909 2.798876,0.07433 4.013998,-0.716517 0.933581,-0.156672 1.942146,0.06282 2.821878,-0.423825 0.948694,-0.41901 2.030945,-0.03261 2.979658,-0.509686 1.185392,-0.54338 2.136724,-0.324317 3.584662,-0.58708 2.055135,-0.416375 4.553849,-0.721166 6.118351,1.009355 1.65779,1.915016 3.694679,3.465891 5.343078,5.37542 1.160733,-1.262008 0.975016,-4.038179 1.638001,-5.852489 0.908571,-2.705683 1.48707,-5.526541 2.28818,-8.245423 2.076727,-1.1882 3.456888,2.234081 5.351651,2.805873 1.794769,1.378351 4.308321,0.0039 5.340424,-1.678497 0.808769,-2.294827 -1.04416,-4.437766 -1.664194,-6.568369 -0.729213,-1.717103 -1.175345,-2.559543 -1.659262,-4.240125 -0.291581,-1.782396 -1.892406,-3.447614 -0.483845,-5.180422 1.070777,-1.444609 0.946213,-3.503848 -0.524575,-4.631667 -0.889628,-0.716243 -2.374967,-2.992501 -3.308789,-2.25961 1.474052,1.359288 3.695849,3.862387 1.40867,5.592373 -2.866375,2.936326 -8.029105,3.549208 -11.174162,0.71686 -2.215836,-1.941491 -0.06729,-4.467556 1.54759,-5.770083 l 0.0023,-0.300813 m -26.161906,31.5807 c -0.0984,0.28838 -0.701929,0.09214 0,0 z"
           id="path908" />
        <path
           style="fill:#d8de22;stroke-width:0.574435"
           d="m 27.751532,112.04303 c -0.683308,-3.81542 -0.516238,-7.71322 -0.534233,-11.57153 0.896643,-2.068 -0.546546,-3.670899 -1.529947,-5.340273 -0.670117,-2.512037 1.642685,-4.61937 3.779318,-5.435515 1.775779,-0.744854 3.572271,-1.446864 5.495404,-1.677606 4.725799,-1.182258 9.656965,-0.914288 14.486394,-0.80389 2.882631,0.466558 6.268677,1.27128 7.7635,4.049363 1.006751,2.19491 0.11281,4.809819 -1.744893,6.244229 -1.705387,1.263112 -1.351748,3.498462 -1.51774,5.350222 -0.08116,2.87386 -0.432743,5.72844 -0.594344,8.59693 -0.555364,-1.5669 -0.596847,-3.46694 -0.675612,-5.19186 -0.169038,-1.98757 0.117896,-4.05328 -0.328428,-5.98923 -1.783159,-1.739049 -3.369135,1.63536 -2.847622,3.26412 -0.08994,2.91094 -0.177941,5.8444 -0.639427,8.72122 -0.558533,-2.52689 -0.588412,-5.19956 -0.64457,-7.80166 0.554234,-2.15986 -0.828424,-4.34106 -3.243078,-3.50868 -2.636492,0.45983 -5.361539,0.30472 -8.008139,0.001 -1.723757,-0.57258 -4.553922,-0.53456 -4.050442,2.04341 -0.135482,2.91938 -0.299911,5.85174 -0.593921,8.7546 -0.577279,-1.14514 -0.389053,-3.54411 -0.534767,-5.11589 -0.139062,-2.11404 0.02597,-4.2723 -0.265995,-6.35911 -1.326188,-2.177981 -3.650183,-0.12209 -3.031289,1.83297 -0.07894,3.37669 -0.144408,6.76634 -0.561629,10.1198 -0.09115,0.33659 -0.126313,-0.31027 -0.17854,-0.18294 z M 66.856881,90.388717 c -2.338475,-1.022113 -4.66026,-2.272038 -6.52173,-4.03684 -1.44405,-1.086485 -2.199464,-4.017257 -4.45297,-3.12789 -1.910392,1.316941 -1.392167,-1.865577 0.174824,-1.248077 1.832039,-0.103796 0.880697,-3.037749 2.989897,-2.357767 2.021044,0.04266 1.905389,-3.53872 4.304415,-2.22714 1.457739,1.373592 3.164303,0.692342 4.397422,-0.322926 1.06359,0.432115 2.98197,1.963623 0.617602,1.716349 -2.681198,-0.250768 -2.225717,2.653547 -1.428919,4.241447 0.501025,2.431888 0.591724,4.929866 0.512109,7.406044 -0.19857,0.01231 -0.398358,0.05649 -0.59265,-0.0432 z"
           id="path3348" />
        <g
           id="g3923"
           transform="translate(-111.66777,22.492051)"
           style="stroke-width:0.574436">
          <path
             style="fill:#f39a5d;stroke-width:0.574435"
             d="m 133.6981,94.479506 c -0.13529,-0.16302 -0.22472,-0.8942 -0.33646,-2.75089 -0.049,-0.81492 -0.14566,-1.86756 -0.2147,-2.3392 -0.069,-0.47164 -0.12553,-1.14272 -0.12553,-1.49128 0,-0.34856 -0.0377,-0.83233 -0.0837,-1.07504 -0.046,-0.24272 -0.12345,-0.86287 -0.17204,-1.37812 -0.0684,-0.72559 -0.12931,-0.99435 -0.27005,-1.19199 -0.14498,-0.20362 -0.19509,-0.4405 -0.24797,-1.1722 -0.0519,-0.71867 -0.12193,-1.05604 -0.32363,-1.55975 -0.14155,-0.35351 -0.28162,-0.80174 -0.31127,-0.99608 -0.0844,-0.55345 -0.0498,-0.50302 -1.37049,-1.99794 -0.60775,-0.68795 -1.04474,-1.12639 -2.07389,-2.08074 -0.45195,-0.4191 -0.89496,-0.88377 -0.98448,-1.03262 -0.0895,-0.14884 -0.31708,-0.34935 -0.50571,-0.44559 -0.18864,-0.0962 -0.40919,-0.27925 -0.49012,-0.40671 -0.0809,-0.12746 -0.63386,-0.7492 -1.22874,-1.38164 -0.59488,-0.63244 -1.23786,-1.37539 -1.42885,-1.651 -0.19099,-0.27561 -0.47101,-0.63445 -0.62226,-0.79744 -0.15126,-0.16298 -0.45758,-0.63923 -0.68071,-1.05833 -0.22313,-0.4191 -0.58422,-1.0287 -0.80241,-1.35467 -0.21819,-0.32596 -0.55885,-0.88866 -0.75702,-1.25043 -0.19817,-0.36178 -0.45206,-0.76682 -0.5642,-0.90009 -0.12272,-0.14585 -0.25282,-0.47384 -0.3268,-0.82389 -0.0676,-0.31987 -0.31831,-0.99836 -0.55714,-1.50774 -0.23882,-0.50939 -0.49313,-1.15709 -0.56513,-1.43934 -0.072,-0.28224 -0.20131,-0.65178 -0.28736,-0.82118 -0.12319,-0.24252 -0.1685,-0.5936 -0.21304,-1.651 -0.0903,-2.14451 -0.0753,-4.77853 0.0294,-5.13577 0.11565,-0.39487 -0.0477,-1.03385 -0.35578,-1.39167 -0.18879,-0.21927 -0.24399,-0.23406 -0.86496,-0.23172 -0.47227,0.002 -0.74474,0.0462 -0.94606,0.15426 -0.15551,0.0835 -0.66255,0.22539 -1.12675,0.31538 -0.46421,0.09 -0.94657,0.21575 -1.07192,0.27947 -0.28385,0.14431 -1.20611,0.30612 -1.75885,0.30858 -0.22901,0.001 -0.5781,0.0753 -0.77574,0.16498 -0.19765,0.0897 -0.57865,0.2018 -0.84667,0.24908 -0.633,0.11165 -4.0984,0.2837 -4.28352,0.21266 -0.33169,-0.12728 -0.22428,-0.71455 0.20017,-1.09444 0.10394,-0.093 0.25916,-0.33171 0.34495,-0.53041 0.0951,-0.22038 0.2644,-0.42526 0.43398,-0.52532 0.33738,-0.19905 1.18309,-1.13102 1.70888,-1.88317 0.2122,-0.30356 0.55668,-0.69193 0.7655,-0.86304 0.20881,-0.17111 0.59918,-0.54768 0.86746,-0.83682 0.60625,-0.65337 1.81822,-1.86457 2.26926,-2.26783 0.18627,-0.16653 0.66228,-0.63815 1.0578,-1.04802 0.39553,-0.40988 0.93855,-0.89424 1.20671,-1.07634 0.26817,-0.18211 0.54889,-0.42469 0.62383,-0.53906 0.0749,-0.11438 0.44147,-0.42722 0.81451,-0.69521 0.37303,-0.26799 0.9498,-0.68164 1.2817,-0.91922 0.70135,-0.50205 2.51918,-1.50509 2.88945,-1.59434 0.234,-0.0564 0.65384,-0.22578 1.91559,-0.77286 0.26194,-0.11357 0.59651,-0.20649 0.74349,-0.20649 0.29545,0 0.42589,0.18343 0.26677,0.37515 -0.16746,0.20178 -1.20007,0.78875 -1.85423,1.05401 -0.34194,0.13865 -0.77568,0.35959 -0.96386,0.49097 -0.18817,0.13138 -0.52645,0.35317 -0.75172,0.49287 -1.19681,0.74218 -1.99664,1.69139 -1.77468,2.10612 0.1626,0.30383 0.41476,0.40658 1.11564,0.45462 0.62764,0.043 1.176,-0.0647 1.176,-0.23104 0,-0.11705 0.52052,-0.7205 0.70528,-0.81764 0.10105,-0.0531 0.44462,-0.1369 0.76349,-0.18617 0.72509,-0.11204 0.98657,-0.27195 0.98657,-0.60338 0,-0.26093 0.25456,-0.51085 0.52034,-0.51085 0.0792,0 0.2517,-0.0892 0.38333,-0.19816 0.31062,-0.25719 1.32174,-0.81782 1.47513,-0.8179 0.0654,-4e-5 0.36651,-0.11765 0.6692,-0.26135 0.30268,-0.1437 0.82656,-0.31448 1.16417,-0.37951 0.33761,-0.065 0.80697,-0.2161 1.04303,-0.33572 0.54574,-0.27655 1.20661,-0.27249 1.24669,0.008 0.0333,0.23264 -0.15355,0.38706 -1.0029,0.82891 -0.39343,0.20467 -0.94393,0.51029 -1.22333,0.67916 -0.2794,0.16887 -0.65752,0.39288 -0.84026,0.49781 -0.18275,0.10493 -0.43692,0.29637 -0.56483,0.42542 -0.1279,0.12905 -0.3976,0.30765 -0.59933,0.39688 -0.20172,0.0892 -0.48095,0.28385 -0.62051,0.43248 -0.13955,0.14863 -0.44423,0.3963 -0.67707,0.55037 -0.23283,0.15407 -0.61383,0.43334 -0.84666,0.62059 -0.23284,0.18725 -0.68421,0.49825 -1.00305,0.69111 -0.31884,0.19286 -0.69418,0.45293 -0.83408,0.57793 l -0.25436,0.22728 0.10637,0.67436 c 0.0634,0.40217 0.18337,0.79397 0.29712,0.97069 0.10491,0.16298 0.21707,0.46778 0.24925,0.67733 0.0322,0.20955 0.16543,0.55245 0.29612,0.762 0.1307,0.20955 0.28114,0.6096 0.33432,0.889 0.10162,0.53387 0.57453,1.65754 0.90799,2.15749 0.10816,0.16215 0.19721,0.4098 0.1979,0.55033 10e-4,0.2949 0.0793,0.44415 0.56064,1.07537 0.19262,0.25258 0.46468,0.68579 0.60457,0.96269 0.1399,0.2769 0.3252,0.56324 0.41178,0.63631 0.17412,0.14693 1.3451,0.84081 1.41894,0.84081 0.0256,0 0.30471,0.12326 0.6202,0.27391 0.55393,0.26451 0.61721,0.27498 1.84362,0.30522 1.51665,0.0374 3.06322,-0.10461 3.61581,-0.33201 0.21917,-0.0902 0.69542,-0.18454 1.05834,-0.20967 0.62268,-0.0431 1.00258,-0.10076 2.73418,-0.41498 0.39582,-0.0718 0.9765,-0.13057 1.2904,-0.13053 0.73453,8e-5 2.96992,-0.22333 3.7896,-0.37874 0.34925,-0.0662 0.99695,-0.15961 1.43934,-0.20753 0.44238,-0.0479 1.12818,-0.18658 1.524,-0.30811 0.58198,-0.1787 0.99503,-0.23532 2.159,-0.29594 0.99254,-0.0517 1.63644,-0.12916 2.07433,-0.24959 0.5149,-0.14161 1.05761,-0.19026 2.86948,-0.25722 2.66233,-0.0984 3.26112,-0.0469 3.85835,0.33187 0.22953,0.14556 0.46114,0.26466 0.5147,0.26466 0.0536,0 0.36352,0.22346 0.6888,0.49659 0.32529,0.27312 0.84712,0.6508 1.15962,0.83927 0.40587,0.24479 0.99039,0.77646 2.04605,1.86106 0.81283,0.8351 1.58759,1.6671 1.72169,1.84889 0.1341,0.18179 0.49966,0.59144 0.81236,0.91033 0.57186,0.58321 0.84553,1.04146 0.75808,1.26937 -0.0266,0.0694 -0.20161,0.14136 -0.40133,0.16515 -0.19477,0.0232 -2.37344,0.0462 -4.84147,0.0511 -4.67748,0.009 -5.50945,0.0542 -7.19666,0.38823 -0.5588,0.11065 -1.2065,0.22567 -1.43934,0.25562 -1.08448,0.13949 -5.42635,1.04648 -6.39233,1.33532 -0.16298,0.0487 -0.59912,0.23497 -0.96919,0.41385 -0.37007,0.17889 -0.72238,0.32525 -0.78292,0.32525 -0.0605,0 -0.25305,0.12867 -0.42781,0.28594 -0.21456,0.19309 -0.44148,0.30566 -0.69875,0.34664 -0.20955,0.0334 -0.59055,0.19366 -0.84666,0.35617 -0.25612,0.16252 -0.76833,0.48761 -1.13825,0.72243 -0.36993,0.23482 -0.84618,0.48418 -1.05834,0.55412 -0.25285,0.0834 -0.49492,0.25177 -0.70263,0.48884 -0.17428,0.19891 -0.51718,0.47585 -0.762,0.61541 -0.6149,0.35054 -0.92286,0.70112 -1.36334,1.55202 -0.35971,0.69487 -0.38305,0.78381 -0.47776,1.82033 -0.0909,0.99474 -0.0842,1.17917 0.0767,2.11517 0.0969,0.56397 0.17627,1.30927 0.17627,1.65622 0,0.35893 0.073,0.90954 0.16938,1.27748 0.0932,0.35567 0.24491,1.13437 0.33722,1.73045 0.0923,0.59608 0.20513,1.27428 0.25071,1.50711 0.16758,0.85601 0.2768,4.78608 0.24002,8.636 -0.0355,3.71533 -0.0454,3.91416 -0.21441,4.318 -0.0974,0.23283 -0.20067,0.56498 -0.22938,0.73811 -0.0496,0.29894 -0.23168,0.57422 -0.37988,0.57422 -0.0375,0 -0.11598,-0.0575 -0.1743,-0.12778 z"
             id="path3734" />
          <path
             style="fill:#f2842c;stroke-width:0.574435"
             d="m 133.75423,94.038966 c -0.0577,-0.35338 -0.17731,-1.7549 -0.31635,-3.70735 -0.19846,-2.7869 -0.23732,-3.23676 -0.32181,-3.72534 -0.0483,-0.2794 -0.12517,-0.88076 -0.17079,-1.33635 -0.0607,-0.60624 -0.13406,-0.91109 -0.27361,-1.13689 -0.15227,-0.24639 -0.20279,-0.49214 -0.25084,-1.22025 -0.047,-0.71272 -0.10793,-1.01605 -0.279,-1.38972 -0.12036,-0.2629 -0.26121,-0.72132 -0.313,-1.0187 -0.0845,-0.48553 -0.15161,-0.6087 -0.65729,-1.20719 -1.38077,-1.63422 -1.81763,-2.11697 -2.00787,-2.21879 -0.11197,-0.0599 -0.39589,-0.31045 -0.63094,-0.55673 -0.23505,-0.24628 -0.58413,-0.58197 -0.77573,-0.74598 -0.29275,-0.25058 -0.33135,-0.31869 -0.24178,-0.42662 0.0881,-0.10621 0.0793,-0.13699 -0.0511,-0.17788 -0.319,-0.10002 -0.4123,-0.18632 -0.43849,-0.4056 -0.0265,-0.22155 -0.21036,-0.30388 -0.31188,-0.13963 -0.0963,0.15575 -0.19399,0.0874 -0.41561,-0.2908 -0.12102,-0.20651 -0.33152,-0.45485 -0.46778,-0.55187 -0.33655,-0.23964 -1.76251,-1.87936 -2.1587,-2.48228 -0.17659,-0.26874 -0.46924,-0.62901 -0.65032,-0.80061 -0.18109,-0.1716 -0.32925,-0.37162 -0.32925,-0.44449 0,-0.136 -0.58009,-1.13433 -1.00966,-1.73762 -0.13264,-0.18626 -0.45931,-0.71966 -0.72594,-1.18533 -0.26664,-0.46567 -0.56361,-0.93267 -0.65994,-1.03778 -0.16917,-0.18461 -0.16982,-0.19501 -0.0191,-0.30526 0.20269,-0.14821 0.11333,-0.42607 -0.11383,-0.35397 -0.13319,0.0423 -0.16763,-0.008 -0.2151,-0.31166 -0.0311,-0.1991 -0.16683,-0.59228 -0.30166,-0.87373 -0.35458,-0.74014 -0.67847,-1.62622 -0.77138,-2.11029 -0.0444,-0.23138 -0.17541,-0.55727 -0.2911,-0.72421 -0.19472,-0.28099 -0.21034,-0.37707 -0.21034,-1.29382 0,-0.55255 0.0347,-0.99028 0.0786,-0.99028 0.11379,0 0.20455,-0.8653 0.1376,-1.31181 -0.0373,-0.24895 -0.0995,-0.38152 -0.17903,-0.38152 -0.0969,0 -0.12181,-0.15554 -0.12181,-0.762 0,-0.61034 0.0245,-0.762 0.12316,-0.762 0.12773,0 0.16966,-0.17039 0.25307,-1.02817 0.061,-0.62704 -0.0201,-1.01511 -0.22309,-1.0682 -0.0879,-0.023 -0.21249,-0.16778 -0.27683,-0.32176 -0.24488,-0.58608 -1.20809,-0.73514 -2.24934,-0.34808 -0.30138,0.11203 -0.81467,0.24985 -1.14064,0.30625 -0.32596,0.0564 -0.76535,0.17326 -0.97641,0.25969 -0.21106,0.0864 -0.80161,0.20188 -1.31233,0.25657 -0.564,0.0604 -1.14052,0.18046 -1.46836,0.30579 -0.35732,0.1366 -0.79574,0.22253 -1.29704,0.25423 -0.70556,0.0446 -0.75543,0.0371 -0.73023,-0.10973 0.0204,-0.11886 -0.025,-0.15759 -0.18463,-0.15759 -0.15003,0 -0.2082,0.0434 -0.19978,0.14888 0.0149,0.18642 -0.0986,0.20918 -1.3423,0.26927 -0.91619,0.0443 -0.99833,0.0356 -1.07815,-0.11353 -0.0709,-0.13242 -0.0202,-0.24282 0.28164,-0.61403 0.20243,-0.24893 0.39277,-0.55627 0.42299,-0.68298 0.0302,-0.12672 0.14021,-0.27324 0.24444,-0.32561 0.29641,-0.14895 1.50316,-1.41536 1.9299,-2.02532 0.21349,-0.30516 0.57361,-0.68168 0.80651,-0.84323 0.23143,-0.16054 0.59125,-0.49943 0.7996,-0.75308 0.98347,-1.19731 1.40894,-1.65558 1.8576,-2.00082 0.26717,-0.20558 0.81857,-0.73634 1.22533,-1.17947 0.40677,-0.44314 0.94235,-0.94029 1.19017,-1.10479 0.24783,-0.1645 0.59695,-0.46472 0.77583,-0.66717 0.17887,-0.20244 0.42047,-0.4181 0.53689,-0.47925 0.11642,-0.0611 0.43629,-0.2863 0.71083,-0.50035 0.27454,-0.21405 0.71269,-0.53626 0.97367,-0.71603 0.59285,-0.40835 2.5769,-1.49347 2.73087,-1.49356 0.0629,-3e-5 0.35584,-0.11433 0.65107,-0.254 0.29522,-0.13966 0.5738,-0.25393 0.61907,-0.25393 0.0453,0 0.27997,-0.091 0.52157,-0.20212 0.51775,-0.23823 0.90492,-0.33882 0.90492,-0.2351 0,0.10107 -1.40117,0.8921 -1.82033,1.02766 -0.47186,0.15261 -0.81051,0.32808 -1.05834,0.54837 -0.11641,0.10348 -0.39168,0.29067 -0.61169,0.41598 -0.602,0.34287 -1.57562,1.21847 -1.76275,1.58529 -0.21398,0.41943 -0.20919,0.67627 0.018,0.96509 0.28993,0.36859 0.60027,0.44939 1.50096,0.39076 0.75745,-0.0493 0.80404,-0.0637 0.97367,-0.30056 0.50583,-0.70636 0.64852,-0.80201 1.40582,-0.94236 0.80149,-0.14854 1.07607,-0.32857 1.11725,-0.73254 0.0221,-0.21644 0.085,-0.27505 0.43967,-0.40916 0.22765,-0.0861 0.49435,-0.22862 0.59266,-0.31672 0.27294,-0.2446 1.07592,-0.6688 1.39245,-0.73561 0.1553,-0.0328 0.49254,-0.17016 0.74943,-0.30529 0.54569,-0.28705 0.70388,-0.3061 0.70388,-0.0848 0,0.11601 0.0886,0.18213 0.3175,0.2369 l 0.3175,0.076 -0.42334,0.24277 c -0.92506,0.53049 -1.17362,0.69453 -1.57626,1.04027 -0.23048,0.19791 -0.47349,0.35984 -0.54003,0.35984 -0.0665,0 -0.35984,0.21313 -0.65178,0.47363 -0.29195,0.2605 -0.63898,0.52957 -0.77118,0.59793 -0.27333,0.14134 -1.21522,0.8447 -1.28726,0.96126 -0.0262,0.0423 -0.27404,0.19768 -0.55083,0.34521 -0.72104,0.38431 -1.12943,0.8005 -1.06333,1.08365 0.0284,0.12173 0.0858,0.46306 0.12746,0.75852 0.0501,0.35529 0.13738,0.60275 0.25767,0.7308 0.10723,0.11414 0.23121,0.42938 0.30208,0.76812 0.0692,0.33058 0.19523,0.65437 0.29689,0.76259 0.10668,0.11356 0.22696,0.43502 0.30357,0.81135 0.0698,0.3428 0.23858,0.85488 0.37511,1.13796 0.13652,0.28308 0.24823,0.54107 0.24823,0.57332 0,0.0322 0.10011,0.2099 0.22247,0.3948 0.12236,0.18489 0.25426,0.50634 0.29311,0.71432 0.0467,0.24974 0.22418,0.58777 0.52279,0.9955 0.24867,0.33955 0.55727,0.83552 0.68577,1.10216 0.12851,0.26663 0.33607,0.55572 0.46125,0.64241 0.3572,0.24736 1.4418,0.81394 2.06548,1.07899 0.40774,0.17328 0.57486,0.29018 0.59267,0.41457 0.0237,0.16567 0.0877,0.17429 1.46412,0.19738 1.55252,0.026 1.82034,-0.002 1.82034,-0.19347 0,-0.13909 0.14328,-0.17856 0.92595,-0.25505 0.29973,-0.0293 0.66168,-0.11501 0.80433,-0.19046 0.16152,-0.0854 0.61078,-0.16203 1.19072,-0.20302 1.63141,-0.11529 2.38147,-0.21981 2.6763,-0.37291 0.21386,-0.11106 0.61077,-0.16609 1.55703,-0.21589 1.57557,-0.0829 1.85277,-0.11164 3.64067,-0.37746 1.77191,-0.26343 2.48837,-0.3987 3.09033,-0.58344 0.29139,-0.0894 0.98849,-0.17013 1.86267,-0.21563 0.9738,-0.0507 1.61501,-0.1298 2.11666,-0.26117 0.66556,-0.17429 0.917,-0.18903 3.34434,-0.19605 l 2.62466,-0.008 0.33828,0.21166 c 0.18605,0.11642 0.4718,0.27272 0.635,0.34734 0.1632,0.0746 0.48722,0.30646 0.72006,0.5152 0.43068,0.38611 1.16635,0.87906 1.58749,1.06374 0.12806,0.0562 0.23284,0.13825 0.23284,0.18244 0,0.0442 0.6477,0.72805 1.43933,1.51968 0.79163,0.79163 1.43933,1.47068 1.43933,1.509 0,0.0721 0.28942,0.39973 1.11505,1.26242 0.26876,0.28083 0.5042,0.61314 0.53493,0.75505 0.0522,0.24096 0.0483,0.24535 -0.0779,0.0891 -0.11634,-0.14402 -0.13277,-0.14664 -0.13277,-0.0212 0,0.0921 -0.068,0.1431 -0.1905,0.14296 -0.10478,-8e-5 -1.91288,0.009 -4.01802,0.0212 -3.68466,0.0206 -3.83193,0.0153 -3.94592,-0.14054 -0.0837,-0.1145 -0.16539,-0.14261 -0.27882,-0.096 -0.10584,0.0435 -0.12422,0.0794 -0.054,0.10565 0.27784,0.10373 -0.0602,0.19462 -0.72519,0.195 -0.40471,2.5e-4 -1.28828,0.0959 -1.9635,0.21264 -0.67522,0.11672 -1.58962,0.25257 -2.032,0.30189 -1.52656,0.17019 -4.45986,0.72502 -5.12233,0.96887 -0.18627,0.0686 -0.60912,0.18012 -0.93967,0.24789 -0.35731,0.0733 -0.98889,0.3136 -1.55769,0.59276 -0.52619,0.25824 -1.00733,0.46953 -1.06922,0.46953 -0.0619,0 -0.17102,0.0893 -0.24251,0.1984 -0.0885,0.13507 -0.28123,0.23467 -0.60387,0.31207 -0.26063,0.0625 -0.63164,0.21489 -0.82446,0.33859 -0.19282,0.1237 -0.47064,0.2976 -0.61737,0.38643 -0.14673,0.0888 -0.53326,0.3254 -0.85895,0.52572 -0.32569,0.20031 -0.72811,0.40174 -0.89427,0.44762 -0.1969,0.0544 -0.41177,0.21724 -0.61699,0.46769 -0.17319,0.21135 -0.48892,0.47351 -0.70161,0.58257 -0.52408,0.26871 -1.13331,0.91763 -1.39159,1.48224 -0.26184,0.57239 -0.43624,0.79707 -0.55955,0.72086 -0.15845,-0.0979 -0.34059,0.13111 -0.34059,0.4283 0,0.18031 0.0534,0.31163 0.14817,0.36471 0.13049,0.073 0.14852,0.23259 0.15111,1.3377 0.003,1.4044 0.20877,3.26217 0.50869,4.5991 0.10969,0.48895 0.23739,1.24005 0.28378,1.6691 0.0464,0.42906 0.1194,0.84816 0.16224,0.93133 0.10346,0.20087 0.25639,1.97006 0.30216,3.49557 0.0285,0.94843 0.0156,1.17471 -0.0563,0.99483 -0.0512,-0.12805 -0.12035,-0.23283 -0.15358,-0.23283 -0.0986,0 -0.18767,1.58566 -0.1328,2.36321 0.0385,0.54599 0.0943,0.77893 0.23077,0.96348 0.17704,0.23946 0.17902,0.28274 0.12184,2.67052 -0.0437,1.82382 -0.0894,2.51131 -0.18412,2.76579 -0.0693,0.18627 -0.17145,0.54537 -0.22699,0.79801 -0.12149,0.55258 -0.26589,0.63817 -0.33744,0.20001 z m 6.04051,-37.44702 c 0.1027,-0.0664 0.0906,-0.0823 -0.0635,-0.0834 -0.10477,-7.1e-4 -0.1905,0.0368 -0.1905,0.0834 0,0.10608 0.0898,0.10608 0.254,0 z m -32.86961,-2.13158 c 0.12686,-0.12686 -0.0194,-0.32375 -0.24042,-0.32375 -0.18549,0 -0.28091,0.13243 -0.21646,0.30039 0.0568,0.14804 0.3188,0.16144 0.45688,0.0234 z m 7.85061,-1.25508 c 0.0288,-0.0466 0.012,-0.0847 -0.0373,-0.0847 -0.0493,0 -0.0897,0.0381 -0.0897,0.0847 0,0.0466 0.0168,0.0847 0.0373,0.0847 0.0205,0 0.0609,-0.0381 0.0897,-0.0847 z m 8.93234,-9.10873 c 0,-0.14951 -0.18227,-0.12347 -0.2346,0.0335 -0.0184,0.0553 0.0268,0.10054 0.10054,0.10054 0.0737,0 0.13406,-0.0603 0.13406,-0.13406 z m 4.14866,-2.69801 c 0,-0.0646 -0.0199,-0.16935 -0.0443,-0.23282 -0.0296,-0.0771 0.12237,-0.19192 0.45718,-0.3456 0.86121,-0.3953 1.41883,-0.24479 0.61452,0.16587 -0.19862,0.10141 -0.44436,0.2376 -0.5461,0.30266 -0.31238,0.19975 -0.48132,0.23832 -0.48132,0.10989 z"
             id="path3732" />
          <path
             style="fill:#f37e1e;stroke-width:0.574435"
             d="m 133.84446,93.802946 c -0.3341,-3.464874 -0.27889,-7.065239 -1.24702,-10.40425 0.0114,-3.214811 -2.29819,-5.542191 -4.54548,-7.52226 -0.85239,-1.591698 -2.4656,-1.970546 -3.54254,-3.693048 -1.50527,-2.130996 -3.40438,-4.249261 -4.06673,-6.786428 -1.02092,-1.706628 -2.21652,-4.100144 -1.79738,-6.207488 -0.73488,-2.080096 0.92692,-4.315783 -0.56161,-6.035083 -2.00469,-0.774115 -3.37243,0.328819 -5.11142,0.50182 -1.87029,0.699592 -4.22291,0.692311 -5.85883,0.699087 -0.84106,-1.665281 2.89544,-3.549412 3.89181,-5.219782 1.32171,-1.756194 3.09287,-2.672573 3.95164,-3.825328 0.86273,-0.786497 2.92766,-2.751957 4.58861,-3.455331 0.85499,-0.621043 3.7796,-1.496937 1.19461,-0.339351 -1.91854,0.517721 -4.52837,4.179989 -0.88501,3.79259 2.06746,-0.989445 3.60277,-2.388213 5.71568,-3.448078 2.10982,-1.137825 1.50721,0.422956 -0.0336,1.00204 -1.85389,1.144101 -3.425,2.148448 -4.84505,3.8991 0.56215,2.538034 1.68782,4.966533 2.71544,7.368278 1.15808,2.252638 3.54362,4.028649 6.0507,3.859582 1.65792,0.235853 2.9333,-1.1482 4.6571,-0.81513 2.03288,-0.628293 4.71137,-0.507993 6.2482,-0.716811 1.99033,-0.440015 4.74769,-1.05423 7.06561,-1.179049 2.35326,-0.491678 4.75956,-0.39082 7.15221,-0.42167 1.91906,1.179736 3.79988,2.410615 5.24568,4.165607 1.13808,1.1545 4.26196,3.789869 0.65573,3.217012 -2.27999,0.233971 -4.8631,-0.288707 -6.91961,0.04246 -4.84515,0.547874 -9.90313,0.982859 -14.21298,3.458899 -2.47695,1.359583 -5.57362,3.012405 -6.49379,5.598143 0.52696,2.07222 -0.0654,3.929597 0.74441,6.039217 0.62499,2.541888 0.85395,5.116349 0.45503,7.705691 0.09,2.625696 0.46436,4.930686 0.20823,7.512294 -0.12724,0.108849 -0.39007,2.422547 -0.41968,1.207265 z m 7.43195,-30.14017 c -0.69037,-0.947477 -0.54323,0.884892 0,0 z m 17.78,-3.47365 c -0.50959,-0.865669 -0.48492,0.843011 0,0 z m -39.57804,-12.48912 c 1.082,-1.680804 -2.40086,-0.05338 0,0 z m -4.36868,-1.00642 c -0.0178,-0.933107 -0.74841,0.226984 0,0 z m -8.80409,7.86073 c -0.10333,-0.424638 0.27522,0.322328 0,0 z m 21.68763,-13.26344 c 0.71772,-1.010506 1.73975,-0.443879 0,0 z"
             id="path3730" />
        </g>
      </g>
    </g>
    <g
       aria-label="Panse-bêtes"
       transform="matrix(0.26458333,0,0,0.26458333,29.709589,-6.717169)"
       id="text5717"
       style="font-size:64px;line-height:1.25;font-family:Roboto;-inkscape-font-specification:Roboto;letter-spacing:0px;word-spacing:0px;baseline-shift:baseline;opacity:1;vector-effect:none;fill:#155e6a;stroke-width:0.999999;stop-color:#000000;stop-opacity:1" />
  </g>
</svg>
